<svg xmlns:xlink="http://www.w3.org/1999/xlink" xmlns="http://www.w3.org/2000/svg" class="icon icon-widget icon-widget--link icon-checkin-widget margin-r-6" viewBox="0 0 32 32" focusable="false" width="32"  height="32" ><defs><symbol id="icon-checkin-widget" viewBox="0 0 32 32">
            <title>checkin-widget</title>
            <path d="M5.333 32c-2.946 0-5.333-2.388-5.333-5.333v0-21.333c0-2.946 2.388-5.333 5.333-5.333v0h9.333v2.667h-9.333c-1.473 0-2.667 1.194-2.667 2.667v0 21.333c0 1.473 1.194 2.667 2.667 2.667v0h18.667c1.473 0 2.667-1.194 2.667-2.667v0-12h2.667v12c0 2.946-2.388 5.333-5.333 5.333v0zM14.568 28.015c-0.435-0.009-0.784-0.364-0.784-0.8 0-0.007 0-0.013 0-0.020l-0 0.001 0.021-0.744c-1.184 0.215-2.545 0.463-2.711 0.497-0.057 0.014-0.122 0.022-0.19 0.022-0.222 0-0.424-0.089-0.571-0.233l0 0c-0.441-0.4-0.717-0.975-0.717-1.615 0-0.584 0.23-1.114 0.604-1.506l-0.001 0.001c0.059-0.060 0.126-0.11 0.201-0.15l0.004-0.002 1.973-1.067-0.101-2.295c-7.224 0.441-7.288 0.441-7.319 0.441-0.001 0-0.003 0-0.004 0-0.323 0-0.601-0.189-0.73-0.463l-0.002-0.005c-0.156-0.307-0.247-0.67-0.247-1.054 0-0.306 0.058-0.598 0.163-0.866l-0.006 0.016c0.343-0.717 0.925-1.275 1.64-1.579l0.021-0.008c0.014-0.006 0.030-0.013 0.048-0.018l0.003-0.001 6.187-2.059-0.187-4.235c0-0.012 0-0.024 0-0.035 0.011-0.661 0.319-1.247 0.796-1.633l0.004-0.003c0.467-0.384 1.070-0.616 1.728-0.616 0.008 0 0.017 0 0.025 0h0.612c0.041-0.003 0.090-0.004 0.139-0.004 1.278 0 2.323 0.992 2.41 2.247l0 0.008c0 0.015 0 0.031 0 0.043l-0.231 4.16 6.151 2.048c0.736 0.312 1.318 0.87 1.653 1.569l0.008 0.019c0.1 0.252 0.158 0.544 0.158 0.85 0 0.384-0.091 0.746-0.254 1.066l0.006-0.014c-0.129 0.28-0.407 0.471-0.729 0.471-0.002 0-0.005 0-0.007-0h0c-0.031 0-0.095 0-7.295-0.44l-0.133 2.428c0.985 0.624 1.975 1.245 2.159 1.352 0.127 0.063 0.232 0.153 0.31 0.264l0.002 0.003c0.233 0.334 0.373 0.748 0.373 1.194 0 0.739-0.381 1.388-0.958 1.762l-0.008 0.005c-0.13 0.092-0.291 0.147-0.465 0.147-0 0-0 0-0 0v0c-0.001 0-0.003 0-0.004 0-0.061 0-0.12-0.007-0.177-0.020l0.005 0.001-2.724-0.605-0.020 0.693c-0.015 0.43-0.367 0.773-0.8 0.773-0 0-0 0-0 0h0zM11.135 26.933h0.025zM14.699 23.467c0.435 0.009 0.784 0.364 0.784 0.8 0 0.007-0 0.013-0 0.020l0-0.001-0.019 0.633 2.603 0.579c0.047-0.069 0.075-0.155 0.075-0.247 0-0.065-0.014-0.126-0.038-0.181l0.001 0.003c-0.233-0.133-0.589-0.363-1.163-0.724l-1.304-0.824c-0.223-0.143-0.369-0.389-0.369-0.67 0-0.015 0-0.031 0.001-0.046l-0 0.002 0.697-12.591c-0.015-0.344-0.445-0.643-0.933-0.643h-0.613c-0.005-0-0.011-0-0.018-0-0.262 0-0.502 0.090-0.693 0.241l0.002-0.002c-0.125 0.096-0.21 0.24-0.226 0.404l-0 0.002 0.552 12.597c0 0.009 0.001 0.019 0.001 0.029 0 0.303-0.168 0.566-0.416 0.702l-0.004 0.002-2.267 1.224c-0.071 0.091-0.114 0.207-0.114 0.333 0 0.065 0.011 0.128 0.033 0.186l-0.001-0.004c0.437-0.081 1.212-0.223 2.593-0.473l0.017-0.579c0.015-0.43 0.367-0.773 0.8-0.773 0 0 0 0 0 0h-0zM6.417 18.065c-0.328 0.145-0.591 0.389-0.757 0.693l-0.004 0.008c-0.018 0.043-0.032 0.093-0.040 0.146l-0 0.003 6.615-0.4-0.097-2.351zM17.128 18.421l6.572 0.4c-0.008-0.058-0.022-0.11-0.043-0.159l0.002 0.004c-0.171-0.309-0.433-0.55-0.749-0.692l-0.010-0.004-5.644-1.879zM23.253 10.233l-4.163-4.244c-0.267-0.274-0.431-0.648-0.431-1.061s0.164-0.787 0.431-1.062l-0 0c0.264-0.272 0.633-0.441 1.041-0.441s0.777 0.169 1.040 0.44l0 0 3.121 3.183 5.2-5.307c0.264-0.272 0.633-0.441 1.041-0.441s0.777 0.169 1.040 0.44l0 0c0.266 0.274 0.43 0.649 0.43 1.061s-0.164 0.787-0.431 1.062l0-0-6.241 6.368c-0.264 0.271-0.633 0.439-1.041 0.439s-0.777-0.168-1.040-0.439l-0-0z"></path>
        </symbol></defs>
                <use xlink:href="#icon-checkin-widget"></use>
            </svg>