<svg xmlns:xlink="http://www.w3.org/1999/xlink" xmlns="http://www.w3.org/2000/svg" class="icon icon-widget icon-widget--link icon-flightstatus-widget margin-r-6" viewBox="0 0 32 32" focusable="false" width="32"  height="32" ><defs><symbol id="icon-flightstatus-widget" viewBox="0 0 32 32">
            <title>flightstatus-widget</title>
            <path d="M4.687 27.313c-2.841-2.886-4.595-6.849-4.595-11.221 0-8.837 7.163-16 16-16 4.372 0 8.335 1.754 11.223 4.597l-0.002-0.002c2.951 2.904 4.779 6.941 4.779 11.405 0 8.837-7.163 16-16 16-4.464 0-8.501-1.828-11.403-4.777l-0.002-0.002zM2.667 16c0 7.364 5.97 13.333 13.333 13.333s13.333-5.97 13.333-13.333c0-7.364-5.97-13.333-13.333-13.333v0c-7.36 0.008-13.325 5.973-13.333 13.333v0.001zM14.667 17.333c-0.736 0-1.333-0.597-1.333-1.333s0.597-1.333 1.333-1.333v0-8c0-0.736 0.597-1.333 1.333-1.333s1.333 0.597 1.333 1.333v0 8h5.333c0.736 0 1.333 0.597 1.333 1.333s-0.597 1.333-1.333 1.333v0h-5.333c0 0.736-0.597 1.333-1.333 1.333s-1.333-0.597-1.333-1.333v0z"></path>
        </symbol></defs>
                <use xlink:href="#icon-flightstatus-widget"></use>
            </svg>