<svg xmlns:xlink="http://www.w3.org/1999/xlink" xmlns="http://www.w3.org/2000/svg" class="icon icon-help" focusable="false" width="32"  height="32" ><defs><symbol id="icon-help" viewBox="0 0 32 32">
            <title>help</title>
            <path d="M4.685 27.313c-2.895-2.895-4.686-6.895-4.686-11.313 0-8.837 7.163-16 16-16s16 7.163 16 16c0 8.836-7.163 16-15.999 16h-0c-0.013 0-0.028 0-0.043 0-4.405 0-8.392-1.792-11.271-4.686l-0.001-0.001zM2.667 16c0 7.364 5.97 13.333 13.333 13.333s13.333-5.97 13.333-13.333c0-7.364-5.97-13.333-13.333-13.333v0c-7.36 0.008-13.325 5.973-13.333 13.333v0.001zM13.819 24.949c-0.341-0.348-0.551-0.826-0.551-1.352 0-0.532 0.215-1.014 0.563-1.364l-0 0c0.384-0.334 0.889-0.538 1.441-0.538s1.058 0.204 1.444 0.54l-0.003-0.002c0.347 0.331 0.563 0.797 0.563 1.314 0 0.019-0 0.038-0.001 0.057l0-0.003c0.001 0.016 0.001 0.035 0.001 0.054 0 0.508-0.211 0.967-0.551 1.293l-0.001 0.001c-0.389 0.331-0.898 0.532-1.453 0.532s-1.064-0.201-1.457-0.534l0.003 0.003zM13.627 19.804c-0.003-0.083-0.005-0.18-0.005-0.278 0-0.889 0.156-1.742 0.442-2.533l-0.016 0.052c0.369-0.803 0.891-1.478 1.532-2.014l0.009-0.007c0.569-0.469 1.061-1.003 1.474-1.596l0.017-0.026c0.232-0.375 0.37-0.829 0.371-1.316v-0q0-2.092-1.929-2.091c-0.027-0.001-0.059-0.002-0.092-0.002-0.536 0-1.022 0.216-1.375 0.565l0-0c-0.357 0.391-0.576 0.914-0.576 1.488 0 0.023 0 0.045 0.001 0.067l-0-0.003h-3.587c-0.003-0.060-0.004-0.129-0.004-0.2 0-1.382 0.589-2.626 1.529-3.496l0.003-0.003c1.146-0.834 2.581-1.334 4.133-1.334 1.511 0 2.911 0.474 4.059 1.281l-0.023-0.015c0.896 0.827 1.454 2.007 1.454 3.318 0 0.093-0.003 0.186-0.008 0.277l0.001-0.013c0 0.006 0 0.012 0 0.019 0 0.717-0.174 1.394-0.481 1.991l0.011-0.024c-0.451 0.799-0.999 1.483-1.639 2.066l-0.006 0.006-1.001 0.952c-0.584 0.537-0.978 1.273-1.075 2.1l-0.002 0.016-0.049 0.755z"></path>
        </symbol></defs>
                            <use xlink:href="#icon-help"></use>
                        </svg>