<svg xmlns:xlink="http://www.w3.org/1999/xlink" xmlns="http://www.w3.org/2000/svg" class="icon icon-widget" viewBox="0 0 64 32" focusable="false" width="80"  height="40" ><defs><symbol id="icon-hotel-widget" viewBox="0 0 64 32">
            <title>icon-hotel-widget</title>
            <path d="M48 24.8c-0.442 0-0.8-0.358-0.8-0.8v0-2.4h-30.4v2.4c0 0.442-0.358 0.8-0.8 0.8s-0.8-0.358-0.8-0.8v0-16c0-0.442 0.358-0.8 0.8-0.8s0.8 0.358 0.8 0.8v0 8.8h30.4v-8.8c0-0.442 0.358-0.8 0.8-0.8s0.8 0.358 0.8 0.8v0 16c0 0.442-0.358 0.8-0.8 0.8v0zM16.8 18.4v1.6h30.4v-1.6zM21.6 15.2c-1.767 0-3.2-1.433-3.2-3.2s1.433-3.2 3.2-3.2c1.767 0 3.2 1.433 3.2 3.2v0c0 1.767-1.433 3.2-3.2 3.2v0zM21.6 10.4c-0.884 0-1.6 0.716-1.6 1.6s0.716 1.6 1.6 1.6c0.884 0 1.6-0.716 1.6-1.6v0c0-0.884-0.716-1.6-1.6-1.6v0zM44.8 15.2h-18.4v-6.4h12c3.533 0.004 6.396 2.867 6.4 6.4v0zM28 10.4v3.2h14.4c-0.063-0.952-0.576-1.772-1.326-2.255l-0.011-0.007c-0.734-0.558-1.655-0.905-2.655-0.937l-0.007-0z"></path>
        </symbol></defs>
                <use xlink:href="#icon-hotel-widget"></use>
            </svg>