<svg xmlns:xlink="http://www.w3.org/1999/xlink" xmlns="http://www.w3.org/2000/svg" class="icon icon-widget" viewBox="0 0 64 32" focusable="false" width="80"  height="40" ><defs><symbol id="icon-ticket-widget" viewBox="0 0 64 32">
            <title>icon-ticket-widget</title>
            <path fill="#231815" style="fill: var(--color3, #231815)" d="M44.216 20h0.376c2.064-0.016 3.848-0.032 5.768-1.040 0.608-0.352 0.832-0.68 0.832-0.872 0-0.112 0.008-0.336-0.536-0.688-0.549-0.324-1.184-0.599-1.853-0.793l-0.059-0.015c-0.627-0.286-1.167-0.634-1.649-1.048l0.009 0.008c-0.24-0.176-0.592-0.432-0.744-0.528-0.048-0.024-0.096-0.040-0.144-0.064-0.72-0.32-1.248-0.552-3.776-0.552-0.2 0-0.416 0-0.632 0.008-3.584 0.056-19.296 1.376-19.456 1.392l-0.144 0.016-0.216-0.024c-0.783-0.007-1.49-0.33-2-0.848l-0-0-0.032-0.048-4.056-4.88c-0.808-0.888-1.224-1.088-1.824-1.16l-0.112-0.008c0.888 2.688 2.36 7.064 2.752 8.032 0.289 0.511 0.709 0.919 1.216 1.184l0.016 0.008c0.708 0.45 1.524 0.838 2.386 1.122l0.078 0.022c1.764 0.419 3.813 0.695 5.915 0.767l0.053 0.001h17.832zM44.224 21.6h-17.872s-4.544-0.216-6.44-0.856-4.072-1.792-4.664-3.248-3.224-9.448-3.224-9.448 0.424-0.816 0.784-0.848l0.056-0.008 1.352 0.072c1.194 0.155 2.217 0.786 2.888 1.692l0.008 0.012 4.072 4.912c0.262 0.21 0.599 0.338 0.966 0.338 0.026 0 0.052-0.001 0.078-0.002l-0.004 0s15.88-1.344 19.568-1.392c0.232 0 0.448-0.008 0.656-0.008 3.104 0 3.68 0.368 4.64 0.784 0.24 0.104 1.912 1.392 2.16 1.48 1.328 0.44 3.576 1.176 3.544 3.048-0.008 0.592-0.312 1.472-1.664 2.24-2.272 1.2-4.336 1.216-6.528 1.232z"></path>
            <path fill="#000" style="fill: var(--color1, #000)" d="M12 13.6h5.6c0.442 0 0.8 0.358 0.8 0.8v0 0c0 0.442-0.358 0.8-0.8 0.8v0h-5.6c-0.442 0-0.8-0.358-0.8-0.8v0 0c0-0.442 0.358-0.8 0.8-0.8v0z"></path>
            <path fill="#000" style="fill: var(--color1, #000)" d="M25.6 16.8h12.8c0.442 0 0.8 0.358 0.8 0.8v0 0c0 0.442-0.358 0.8-0.8 0.8v0h-12.8c-0.442 0-0.8-0.358-0.8-0.8v0 0c0-0.442 0.358-0.8 0.8-0.8v0z"></path>
            <path fill="#000" style="fill: var(--color1, #000)" d="M45.6 15.2h3.2c0.442 0 0.8 0.358 0.8 0.8v0 0c0 0.442-0.358 0.8-0.8 0.8v0h-3.2c-0.442 0-0.8-0.358-0.8-0.8v0 0c0-0.442 0.358-0.8 0.8-0.8v0z"></path>
            <path fill="#000" style="fill: var(--color1, #000)" d="M45.2 22.4v0c0.663 0 1.2 0.537 1.2 1.2v0 0c0 0.663-0.537 1.2-1.2 1.2v0 0c-0.663 0-1.2-0.537-1.2-1.2v0 0c0-0.663 0.537-1.2 1.2-1.2v0z"></path>
            <path fill="#000" style="fill: var(--color1, #000)" d="M27.6 22.4v0c0.663 0 1.2 0.537 1.2 1.2v0 0c0 0.663-0.537 1.2-1.2 1.2v0 0c-0.663 0-1.2-0.537-1.2-1.2v0 0c0-0.663 0.537-1.2 1.2-1.2v0z"></path>
        </symbol></defs>
                <use xlink:href="#icon-ticket-widget"></use>
            </svg>