<svg xmlns:xlink="http://www.w3.org/1999/xlink" xmlns="http://www.w3.org/2000/svg" class="icon icon-widget" viewBox="0 0 64 32" focusable="false" width="64"  height="32" ><defs><symbol id="icon-airport-widget" viewBox="0 0 64 32">
            <title>icon-airport-widget</title>
            <path d="M14.4 24.8c0.452-0.953 1.107-1.744 1.912-2.343l0.016-0.012c0.994-0.763 2.132-1.414 3.353-1.901l0.096-0.034c3.017-1.19 6.508-1.935 10.157-2.059l0.053-0.001c-1.271-2.124-2.786-4.967-2.786-6.449 0-2.651 2.149-4.8 4.8-4.8s4.8 2.149 4.8 4.8v0c0 1.485-1.515 4.326-2.786 6.449 3.701 0.126 7.192 0.871 10.423 2.135l-0.214-0.074c1.317 0.522 2.455 1.173 3.483 1.96l-0.034-0.025c0.822 0.61 1.476 1.402 1.91 2.317l0.016 0.037c-1.889-1.444-4.113-2.564-6.526-3.23l-0.136-0.032c-2.946-0.895-6.34-1.445-9.85-1.519l-0.041-0.001c-0.601 0.943-1.040 1.581-1.046 1.587-0.011-0.014-0.022-0.029-0.032-0.044l-0.001-0.002c-0.334-0.492-0.674-1.010-1.013-1.541-3.552 0.075-6.946 0.625-10.161 1.589l0.269-0.069c-2.55 0.695-4.774 1.816-6.711 3.296l0.047-0.034zM28.8 12c0 1.76 3.167 7.146 3.2 7.2 0.031-0.052 3.2-5.448 3.2-7.2 0-1.767-1.433-3.2-3.2-3.2s-3.2 1.433-3.2 3.2v0zM30.4 12c0-0.884 0.716-1.6 1.6-1.6s1.6 0.716 1.6 1.6c0 0.884-0.716 1.6-1.6 1.6v0c-0.884 0-1.6-0.716-1.6-1.6v0z"></path>
        </symbol></defs>
                <use xlink:href="#icon-airport-widget"></use>
            </svg>