<svg aria-hidden="true" style="position: absolute; width: 0; height: 0; overflow: hidden;" version="1.1" xmlns="http://www.w3.org/2000/svg" xmlns:xlink="http://www.w3.org/1999/xlink" focusable="false" width="64"  height="32" >
    <defs>
        <symbol id="icon-PNRAndTicket-widget" viewBox="0 0 64 32">
            <title>icon-PNRAndTicket-widget</title>
            <path d="M39.2 24.8h-22.4c-1.324-0.004-2.396-1.076-2.4-2.4v-12.8c0.004-1.324 1.076-2.396 2.4-2.4h22.4c1.324 0.004 2.396 1.076 2.4 2.4v12.8c-0.004 1.324-1.076 2.396-2.4 2.4h-0zM16.8 8.8c-0.442 0-0.8 0.358-0.8 0.8v0 12.8c0 0.442 0.358 0.8 0.8 0.8v0h22.4c0.442 0 0.8-0.358 0.8-0.8v0-12.8c0-0.442-0.358-0.8-0.8-0.8v0z"></path>
            <path d="M19.2 11.2h8c0.442 0 0.8 0.358 0.8 0.8v0 0c0 0.442-0.358 0.8-0.8 0.8v0h-8c-0.442 0-0.8-0.358-0.8-0.8v0 0c0-0.442 0.358-0.8 0.8-0.8v0z"></path>
            <path d="M19.2 16.8h4.8c0.442 0 0.8 0.358 0.8 0.8v0 0c0 0.442-0.358 0.8-0.8 0.8v0h-4.8c-0.442 0-0.8-0.358-0.8-0.8v0 0c0-0.442 0.358-0.8 0.8-0.8v0z"></path>
            <path d="M32 16.8h4.8c0.442 0 0.8 0.358 0.8 0.8v0 0c0 0.442-0.358 0.8-0.8 0.8v0h-4.8c-0.442 0-0.8-0.358-0.8-0.8v0 0c0-0.442 0.358-0.8 0.8-0.8v0z"></path>
            <path d="M19.2 20h17.6c0.442 0 0.8 0.358 0.8 0.8v0 0c0 0.442-0.358 0.8-0.8 0.8v0h-17.6c-0.442 0-0.8-0.358-0.8-0.8v0 0c0-0.442 0.358-0.8 0.8-0.8v0z"></path>
            <path d="M47.2 24.8h-4.8c-1.324-0.004-2.396-1.076-2.4-2.4v-12.8c0.004-1.324 1.076-2.396 2.4-2.4h4.8c1.324 0.004 2.396 1.076 2.4 2.4v12.8c-0.004 1.324-1.076 2.396-2.4 2.4h-0zM42.4 8.8c-0.442 0-0.8 0.358-0.8 0.8v0 12.8c0 0.442 0.358 0.8 0.8 0.8v0h4.8c0.442 0 0.8-0.358 0.8-0.8v0-12.8c0-0.442-0.358-0.8-0.8-0.8v0z"></path>
        </symbol>
        <symbol id="icon-flights-widget" viewBox="0 0 64 32">
            <title>icon-flights-widget</title>
            <path d="M44.8 24v-8.88c-1.839-0.385-3.2-1.993-3.2-3.919 0-2.209 1.791-4 4-4s4 1.791 4 4c0 1.926-1.361 3.534-3.174 3.915l-0.026 0.005v8.88c0 0.442-0.358 0.8-0.8 0.8s-0.8-0.358-0.8-0.8v0zM43.2 11.2c0 1.325 1.075 2.4 2.4 2.4s2.4-1.075 2.4-2.4c0-1.325-1.075-2.4-2.4-2.4v0c-1.325 0-2.4 1.075-2.4 2.4v0z"></path>
            <path d="M43.208 21.768c-0.081-0.122-0.129-0.272-0.129-0.434 0-0.281 0.146-0.527 0.366-0.668l0.003-0.002c0.122-0.081 0.272-0.129 0.434-0.129 0.281 0 0.527 0.146 0.668 0.366l0.002 0.003c0.079 0.122 0.126 0.271 0.126 0.432 0 0.281-0.145 0.528-0.363 0.67l-0.003 0.002c-0.12 0.080-0.268 0.128-0.427 0.128-0.002 0-0.003 0-0.005 0h0c-0.001 0-0.003 0-0.004 0-0.28 0-0.525-0.145-0.666-0.365l-0.002-0.003zM17.784 20.504c-0.113-0.136-0.181-0.312-0.181-0.505 0-0.248 0.114-0.469 0.292-0.614l0.001-0.001c0.136-0.113 0.312-0.181 0.505-0.181 0.248 0 0.469 0.114 0.614 0.292l0.001 0.001c0.113 0.136 0.181 0.312 0.181 0.505 0 0.248-0.114 0.469-0.292 0.614l-0.001 0.001c-0.132 0.114-0.305 0.184-0.494 0.184-0.003 0-0.007-0-0.010-0h0c-0 0-0 0-0 0-0.248 0-0.47-0.115-0.615-0.294l-0.001-0.002zM41.272 19.504c-0.162-0.148-0.263-0.36-0.263-0.596 0-0.208 0.079-0.397 0.208-0.541l-0.001 0.001c0.147-0.161 0.358-0.262 0.592-0.262 0.206 0 0.395 0.078 0.537 0.207l-0.001-0.001c0.162 0.148 0.263 0.36 0.263 0.596 0 0.208-0.078 0.397-0.207 0.54l0.001-0.001c-0.144 0.162-0.354 0.264-0.587 0.264-0.002 0-0.003 0-0.005-0h0c-0.207-0.001-0.395-0.080-0.537-0.209l0.001 0.001zM20.36 18.6c-0.070-0.117-0.112-0.259-0.112-0.41 0-0.289 0.152-0.542 0.381-0.684l0.003-0.002c0.119-0.073 0.262-0.116 0.416-0.116 0.29 0 0.545 0.154 0.686 0.384l0.002 0.003c0.070 0.117 0.112 0.257 0.112 0.408 0 0.291-0.156 0.546-0.388 0.686l-0.004 0.002c-0.115 0.075-0.256 0.12-0.408 0.12h-0c-0.291-0.003-0.544-0.157-0.686-0.388l-0.002-0.004zM38.816 17.744c-0.243-0.138-0.404-0.395-0.404-0.689 0-0.147 0.040-0.284 0.11-0.402l-0.002 0.004c0.14-0.244 0.399-0.406 0.696-0.406 0.144 0 0.279 0.038 0.395 0.104l-0.004-0.002c0.244 0.14 0.406 0.399 0.406 0.696 0 0.144-0.038 0.279-0.104 0.395l0.002-0.004c-0.14 0.244-0.399 0.406-0.696 0.408h-0c-0.001 0-0.002 0-0.004 0-0.146 0-0.282-0.039-0.4-0.106l0.004 0.002zM23.152 17.032c-0.046-0.098-0.073-0.213-0.073-0.334 0-0.323 0.192-0.602 0.468-0.728l0.005-0.002h-0.008c0.097-0.045 0.211-0.071 0.331-0.071 0.324 0 0.603 0.191 0.731 0.466l0.002 0.005c0.044 0.096 0.070 0.209 0.070 0.327 0 0.322-0.191 0.6-0.465 0.727l-0.005 0.002c-0.096 0.045-0.209 0.072-0.328 0.072-0 0-0 0-0 0v0c-0.001 0-0.001 0-0.002 0-0.32 0-0.596-0.188-0.724-0.459l-0.002-0.005zM36.040 16.512c-0.322-0.109-0.549-0.408-0.549-0.76 0-0.095 0.016-0.186 0.047-0.27l-0.002 0.006c0.111-0.317 0.408-0.539 0.756-0.539 0.093 0 0.182 0.016 0.265 0.045l-0.006-0.002c0.318 0.106 0.543 0.401 0.543 0.749 0 0.096-0.017 0.188-0.048 0.273l0.002-0.005c-0.108 0.318-0.404 0.543-0.752 0.544h-0c-0.092-0.001-0.18-0.016-0.262-0.042l0.006 0.002zM26.104 15.8c-0.020-0.067-0.032-0.144-0.032-0.224 0-0.362 0.24-0.668 0.57-0.767l0.006-0.001c0.069-0.022 0.149-0.035 0.232-0.035 0.361 0 0.665 0.242 0.759 0.573l0.001 0.006c0.020 0.067 0.032 0.144 0.032 0.224 0 0.362-0.24 0.668-0.57 0.767l-0.006 0.001c-0.067 0.018-0.143 0.030-0.222 0.032l-0.002 0c-0.362 0-0.668-0.24-0.767-0.57l-0.001-0.006zM33.088 15.768v0c-0.39-0.055-0.688-0.386-0.688-0.787 0-0.038 0.003-0.076 0.008-0.113l-0.001 0.004c0.049-0.394 0.382-0.696 0.785-0.696 0.039 0 0.078 0.003 0.116 0.008l-0.004-0.001c0.394 0.054 0.695 0.388 0.695 0.793 0 0.036-0.002 0.072-0.007 0.107l0-0.004c-0.056 0.393-0.389 0.692-0.792 0.696h-0c-0.005 0-0.012 0-0.018 0-0.033 0-0.066-0.003-0.097-0.009l0.003 0.001zM29.208 15.024c-0.003-0.024-0.004-0.051-0.004-0.079 0-0.413 0.311-0.754 0.712-0.8l0.004-0c0.025-0.003 0.055-0.004 0.084-0.004 0.412 0 0.752 0.312 0.795 0.713l0 0.004c0.003 0.025 0.004 0.055 0.004 0.084 0 0.412-0.312 0.752-0.713 0.795l-0.004 0c-0.021 0.005-0.046 0.008-0.071 0.008-0.006 0-0.012-0-0.018-0.001l0.001 0c-0.41-0.007-0.746-0.317-0.792-0.716l-0-0.004z"></path>
            <path d="M17.6 21.6v0c-0.032-0.048-3.2-4.664-3.2-6.4 0-1.767 1.433-3.2 3.2-3.2s3.2 1.433 3.2 3.2v0c0 1.736-3.168 6.352-3.2 6.4zM17.6 13.6c-0.884 0-1.6 0.716-1.6 1.6s0.716 1.6 1.6 1.6c0.884 0 1.6-0.716 1.6-1.6v0c-0.003-0.883-0.717-1.597-1.6-1.6h-0z"></path>
        </symbol>
        <symbol id="icon-airport-widget" viewBox="0 0 64 32">
            <title>icon-airport-widget</title>
            <path d="M14.4 24.8c0.452-0.953 1.107-1.744 1.912-2.343l0.016-0.012c0.994-0.763 2.132-1.414 3.353-1.901l0.096-0.034c3.017-1.19 6.508-1.935 10.157-2.059l0.053-0.001c-1.271-2.124-2.786-4.967-2.786-6.449 0-2.651 2.149-4.8 4.8-4.8s4.8 2.149 4.8 4.8v0c0 1.485-1.515 4.326-2.786 6.449 3.701 0.126 7.192 0.871 10.423 2.135l-0.214-0.074c1.317 0.522 2.455 1.173 3.483 1.96l-0.034-0.025c0.822 0.61 1.476 1.402 1.91 2.317l0.016 0.037c-1.889-1.444-4.113-2.564-6.526-3.23l-0.136-0.032c-2.946-0.895-6.34-1.445-9.85-1.519l-0.041-0.001c-0.601 0.943-1.040 1.581-1.046 1.587-0.011-0.014-0.022-0.029-0.032-0.044l-0.001-0.002c-0.334-0.492-0.674-1.010-1.013-1.541-3.552 0.075-6.946 0.625-10.161 1.589l0.269-0.069c-2.55 0.695-4.774 1.816-6.711 3.296l0.047-0.034zM28.8 12c0 1.76 3.167 7.146 3.2 7.2 0.031-0.052 3.2-5.448 3.2-7.2 0-1.767-1.433-3.2-3.2-3.2s-3.2 1.433-3.2 3.2v0zM30.4 12c0-0.884 0.716-1.6 1.6-1.6s1.6 0.716 1.6 1.6c0 0.884-0.716 1.6-1.6 1.6v0c-0.884 0-1.6-0.716-1.6-1.6v0z"></path>
        </symbol>
        <symbol id="icon-car-widget" viewBox="0 0 64 32">
            <title>icon-car-widget</title>
            <path fill="#000" style="fill: var(--color1, #000)" d="M32.488 8.801c-3.153 0.050-6.149 0.665-8.909 1.748l0.173-0.060c-1.677 0.638-3.125 1.487-4.404 2.534l0.028-0.022c-1.233 1.011-2.198 2.305-2.801 3.784l-0.023 0.064c-0.194 0.471-0.357 1.027-0.464 1.603l-0.008 0.053-0.128 0.976-0.952 0.32c-0.327 0.093-0.568 0.374-0.6 0.717l-0 0.003c0.018 0.108 0.045 0.205 0.083 0.297l-0.003-0.009h35.032c0.036-0.083 0.064-0.18 0.079-0.281l0.001-0.007c-0.037-0.367-0.307-0.662-0.659-0.735l-0.005-0.001-0.928-0.248-0.224-0.936c-0.48-2.032-2.456-3.4-4.92-3.4h-1.688l-0.4-1.016c-0.673-1.573-1.758-2.861-3.121-3.764l-0.031-0.020c-1.434-0.996-3.211-1.593-5.126-1.6h-0.002zM32.488 7.201c4.347 0.008 8.086 2.606 9.757 6.332l0.027 0.068h0.6c3.168 0 5.816 1.832 6.472 4.632 1.058 0.257 1.835 1.187 1.856 2.302l0 0.002c0 0.592-0.504 1.864-1.128 1.864h-36.144c-0.624 0-1.128-1.28-1.128-1.864 0.025-1.056 0.722-1.943 1.679-2.251l0.017-0.005c0.134-0.763 0.331-1.44 0.592-2.084l-0.024 0.068c2.816-7.296 12.984-9.064 17.424-9.064z"></path>
            <path fill="#000" style="fill: var(--color1, #000)" d="M16.8 13.601h25.6v1.6h-25.6v-1.6z"></path>
            <path fill="#000" style="fill: var(--color1, #000)" d="M29.6 8.001v0c0.442 0 0.8 0.358 0.8 0.8v0 10.4c0 0.442-0.358 0.8-0.8 0.8v0 0c-0.442 0-0.8-0.358-0.8-0.8v0-10.4c0-0.442 0.358-0.8 0.8-0.8v0z"></path>
            <path fill="#000" style="fill: var(--color1, #000)" d="M23.2 9.601v0c0.442 0 0.8 0.358 0.8 0.8v0 3.2c0 0.442-0.358 0.8-0.8 0.8v0 0c-0.442 0-0.8-0.358-0.8-0.8v0-3.2c0-0.442 0.358-0.8 0.8-0.8v0z"></path>
            <path fill="#000" style="fill: var(--color1, #000)" d="M13.976 9.769v0c0.144-0.139 0.34-0.225 0.556-0.225 0.224 0 0.427 0.092 0.572 0.241l0 0 2.224 2.304c0.139 0.144 0.225 0.34 0.225 0.556 0 0.224-0.092 0.427-0.241 0.572l-0 0c-0.144 0.139-0.34 0.225-0.556 0.225-0.224 0-0.427-0.092-0.572-0.241l-0-0-2.224-2.304c-0.142-0.143-0.229-0.339-0.229-0.556 0-0.225 0.094-0.428 0.245-0.572l0-0z"></path>
            <path fill="#fff" style="fill: var(--color2, #fff)" d="M24 21.598c0 1.767-1.433 3.2-3.2 3.2s-3.2-1.433-3.2-3.2c0-1.767 1.433-3.2 3.2-3.2s3.2 1.433 3.2 3.2z"></path>
            <path fill="none" stroke="#000" style="stroke: var(--color1, #000)" stroke-linejoin="miter" stroke-linecap="butt" stroke-miterlimit="4" stroke-width="1.6" d="M23.2 21.598c0 1.325-1.075 2.4-2.4 2.4s-2.4-1.075-2.4-2.4c0-1.325 1.075-2.4 2.4-2.4s2.4 1.075 2.4 2.4z"></path>
            <path fill="#fff" style="fill: var(--color2, #fff)" d="M43.2 21.598c0 1.767-1.433 3.2-3.2 3.2s-3.2-1.433-3.2-3.2c0-1.767 1.433-3.2 3.2-3.2s3.2 1.433 3.2 3.2z"></path>
            <path fill="none" stroke="#000" style="stroke: var(--color1, #000)" stroke-linejoin="miter" stroke-linecap="butt" stroke-miterlimit="4" stroke-width="1.6" d="M42.4 21.598c0 1.325-1.075 2.4-2.4 2.4s-2.4-1.075-2.4-2.4c0-1.325 1.075-2.4 2.4-2.4s2.4 1.075 2.4 2.4z"></path>
        </symbol>
        <symbol id="icon-flightNumber-widget" viewBox="0 0 64 32">
            <title>icon-flightNumber-widget</title>
            <path d="M27.192 23.2l2.856-14.4h-5.872l-8.568 14.4h11.584zM28.512 24.8h-15.712l10.472-17.6h8.728zM50.4 23.2h-17.6c-0.442 0-0.8-0.358-0.8-0.8s0.358-0.8 0.8-0.8v0h17.6c0.442 0 0.8 0.358 0.8 0.8s-0.358 0.8-0.8 0.8v0zM41.6 20h-8.8c-0.442 0-0.8-0.358-0.8-0.8s0.358-0.8 0.8-0.8v0h8.8c0.442 0 0.8 0.358 0.8 0.8s-0.358 0.8-0.8 0.8v0z"></path>
        </symbol>
        <symbol id="icon-hotel-widget" viewBox="0 0 64 32">
            <title>icon-hotel-widget</title>
            <path d="M48 24.8c-0.442 0-0.8-0.358-0.8-0.8v0-2.4h-30.4v2.4c0 0.442-0.358 0.8-0.8 0.8s-0.8-0.358-0.8-0.8v0-16c0-0.442 0.358-0.8 0.8-0.8s0.8 0.358 0.8 0.8v0 8.8h30.4v-8.8c0-0.442 0.358-0.8 0.8-0.8s0.8 0.358 0.8 0.8v0 16c0 0.442-0.358 0.8-0.8 0.8v0zM16.8 18.4v1.6h30.4v-1.6zM21.6 15.2c-1.767 0-3.2-1.433-3.2-3.2s1.433-3.2 3.2-3.2c1.767 0 3.2 1.433 3.2 3.2v0c0 1.767-1.433 3.2-3.2 3.2v0zM21.6 10.4c-0.884 0-1.6 0.716-1.6 1.6s0.716 1.6 1.6 1.6c0.884 0 1.6-0.716 1.6-1.6v0c0-0.884-0.716-1.6-1.6-1.6v0zM44.8 15.2h-18.4v-6.4h12c3.533 0.004 6.396 2.867 6.4 6.4v0zM28 10.4v3.2h14.4c-0.063-0.952-0.576-1.772-1.326-2.255l-0.011-0.007c-0.734-0.558-1.655-0.905-2.655-0.937l-0.007-0z"></path>
        </symbol>
        <symbol id="icon-login-widget" viewBox="0 0 64 32">
            <title>icon-login-widget</title>
            <path fill="none" stroke="#000" style="stroke: var(--color1, #000)" stroke-linejoin="miter" stroke-linecap="butt" stroke-miterlimit="4" stroke-width="1.6" d="M36.8 8c0 2.651-2.149 4.8-4.8 4.8s-4.8-2.149-4.8-4.8c0-2.651 2.149-4.8 4.8-4.8s4.8 2.149 4.8 4.8z"></path>
            <path d="M28.8 15.2c-2.209 0-4 1.791-4 4v0 4h14.4v-4c0-2.209-1.791-4-4-4v0h-6.4zM28.8 13.6h6.4c3.093 0 5.6 2.507 5.6 5.6v0 5.6h-17.6v-5.6c0-3.093 2.507-5.6 5.6-5.6v0z"></path>
        </symbol>
        <symbol id="icon-ticket-widget" viewBox="0 0 64 32">
            <title>icon-ticket-widget</title>
            <path fill="#231815" style="fill: var(--color3, #231815)" d="M44.216 20h0.376c2.064-0.016 3.848-0.032 5.768-1.040 0.608-0.352 0.832-0.68 0.832-0.872 0-0.112 0.008-0.336-0.536-0.688-0.549-0.324-1.184-0.599-1.853-0.793l-0.059-0.015c-0.627-0.286-1.167-0.634-1.649-1.048l0.009 0.008c-0.24-0.176-0.592-0.432-0.744-0.528-0.048-0.024-0.096-0.040-0.144-0.064-0.72-0.32-1.248-0.552-3.776-0.552-0.2 0-0.416 0-0.632 0.008-3.584 0.056-19.296 1.376-19.456 1.392l-0.144 0.016-0.216-0.024c-0.783-0.007-1.49-0.33-2-0.848l-0-0-0.032-0.048-4.056-4.88c-0.808-0.888-1.224-1.088-1.824-1.16l-0.112-0.008c0.888 2.688 2.36 7.064 2.752 8.032 0.289 0.511 0.709 0.919 1.216 1.184l0.016 0.008c0.708 0.45 1.524 0.838 2.386 1.122l0.078 0.022c1.764 0.419 3.813 0.695 5.915 0.767l0.053 0.001h17.832zM44.224 21.6h-17.872s-4.544-0.216-6.44-0.856-4.072-1.792-4.664-3.248-3.224-9.448-3.224-9.448 0.424-0.816 0.784-0.848l0.056-0.008 1.352 0.072c1.194 0.155 2.217 0.786 2.888 1.692l0.008 0.012 4.072 4.912c0.262 0.21 0.599 0.338 0.966 0.338 0.026 0 0.052-0.001 0.078-0.002l-0.004 0s15.88-1.344 19.568-1.392c0.232 0 0.448-0.008 0.656-0.008 3.104 0 3.68 0.368 4.64 0.784 0.24 0.104 1.912 1.392 2.16 1.48 1.328 0.44 3.576 1.176 3.544 3.048-0.008 0.592-0.312 1.472-1.664 2.24-2.272 1.2-4.336 1.216-6.528 1.232z"></path>
            <path fill="#000" style="fill: var(--color1, #000)" d="M12 13.6h5.6c0.442 0 0.8 0.358 0.8 0.8v0 0c0 0.442-0.358 0.8-0.8 0.8v0h-5.6c-0.442 0-0.8-0.358-0.8-0.8v0 0c0-0.442 0.358-0.8 0.8-0.8v0z"></path>
            <path fill="#000" style="fill: var(--color1, #000)" d="M25.6 16.8h12.8c0.442 0 0.8 0.358 0.8 0.8v0 0c0 0.442-0.358 0.8-0.8 0.8v0h-12.8c-0.442 0-0.8-0.358-0.8-0.8v0 0c0-0.442 0.358-0.8 0.8-0.8v0z"></path>
            <path fill="#000" style="fill: var(--color1, #000)" d="M45.6 15.2h3.2c0.442 0 0.8 0.358 0.8 0.8v0 0c0 0.442-0.358 0.8-0.8 0.8v0h-3.2c-0.442 0-0.8-0.358-0.8-0.8v0 0c0-0.442 0.358-0.8 0.8-0.8v0z"></path>
            <path fill="#000" style="fill: var(--color1, #000)" d="M45.2 22.4v0c0.663 0 1.2 0.537 1.2 1.2v0 0c0 0.663-0.537 1.2-1.2 1.2v0 0c-0.663 0-1.2-0.537-1.2-1.2v0 0c0-0.663 0.537-1.2 1.2-1.2v0z"></path>
            <path fill="#000" style="fill: var(--color1, #000)" d="M27.6 22.4v0c0.663 0 1.2 0.537 1.2 1.2v0 0c0 0.663-0.537 1.2-1.2 1.2v0 0c-0.663 0-1.2-0.537-1.2-1.2v0 0c0-0.663 0.537-1.2 1.2-1.2v0z"></path>
        </symbol>
        <symbol id="icon-checkin-widget" viewBox="0 0 32 32">
            <title>checkin-widget</title>
            <path d="M5.333 32c-2.946 0-5.333-2.388-5.333-5.333v0-21.333c0-2.946 2.388-5.333 5.333-5.333v0h9.333v2.667h-9.333c-1.473 0-2.667 1.194-2.667 2.667v0 21.333c0 1.473 1.194 2.667 2.667 2.667v0h18.667c1.473 0 2.667-1.194 2.667-2.667v0-12h2.667v12c0 2.946-2.388 5.333-5.333 5.333v0zM14.568 28.015c-0.435-0.009-0.784-0.364-0.784-0.8 0-0.007 0-0.013 0-0.020l-0 0.001 0.021-0.744c-1.184 0.215-2.545 0.463-2.711 0.497-0.057 0.014-0.122 0.022-0.19 0.022-0.222 0-0.424-0.089-0.571-0.233l0 0c-0.441-0.4-0.717-0.975-0.717-1.615 0-0.584 0.23-1.114 0.604-1.506l-0.001 0.001c0.059-0.060 0.126-0.11 0.201-0.15l0.004-0.002 1.973-1.067-0.101-2.295c-7.224 0.441-7.288 0.441-7.319 0.441-0.001 0-0.003 0-0.004 0-0.323 0-0.601-0.189-0.73-0.463l-0.002-0.005c-0.156-0.307-0.247-0.67-0.247-1.054 0-0.306 0.058-0.598 0.163-0.866l-0.006 0.016c0.343-0.717 0.925-1.275 1.64-1.579l0.021-0.008c0.014-0.006 0.030-0.013 0.048-0.018l0.003-0.001 6.187-2.059-0.187-4.235c0-0.012 0-0.024 0-0.035 0.011-0.661 0.319-1.247 0.796-1.633l0.004-0.003c0.467-0.384 1.070-0.616 1.728-0.616 0.008 0 0.017 0 0.025 0h0.612c0.041-0.003 0.090-0.004 0.139-0.004 1.278 0 2.323 0.992 2.41 2.247l0 0.008c0 0.015 0 0.031 0 0.043l-0.231 4.16 6.151 2.048c0.736 0.312 1.318 0.87 1.653 1.569l0.008 0.019c0.1 0.252 0.158 0.544 0.158 0.85 0 0.384-0.091 0.746-0.254 1.066l0.006-0.014c-0.129 0.28-0.407 0.471-0.729 0.471-0.002 0-0.005 0-0.007-0h0c-0.031 0-0.095 0-7.295-0.44l-0.133 2.428c0.985 0.624 1.975 1.245 2.159 1.352 0.127 0.063 0.232 0.153 0.31 0.264l0.002 0.003c0.233 0.334 0.373 0.748 0.373 1.194 0 0.739-0.381 1.388-0.958 1.762l-0.008 0.005c-0.13 0.092-0.291 0.147-0.465 0.147-0 0-0 0-0 0v0c-0.001 0-0.003 0-0.004 0-0.061 0-0.12-0.007-0.177-0.020l0.005 0.001-2.724-0.605-0.020 0.693c-0.015 0.43-0.367 0.773-0.8 0.773-0 0-0 0-0 0h0zM11.135 26.933h0.025zM14.699 23.467c0.435 0.009 0.784 0.364 0.784 0.8 0 0.007-0 0.013-0 0.020l0-0.001-0.019 0.633 2.603 0.579c0.047-0.069 0.075-0.155 0.075-0.247 0-0.065-0.014-0.126-0.038-0.181l0.001 0.003c-0.233-0.133-0.589-0.363-1.163-0.724l-1.304-0.824c-0.223-0.143-0.369-0.389-0.369-0.67 0-0.015 0-0.031 0.001-0.046l-0 0.002 0.697-12.591c-0.015-0.344-0.445-0.643-0.933-0.643h-0.613c-0.005-0-0.011-0-0.018-0-0.262 0-0.502 0.090-0.693 0.241l0.002-0.002c-0.125 0.096-0.21 0.24-0.226 0.404l-0 0.002 0.552 12.597c0 0.009 0.001 0.019 0.001 0.029 0 0.303-0.168 0.566-0.416 0.702l-0.004 0.002-2.267 1.224c-0.071 0.091-0.114 0.207-0.114 0.333 0 0.065 0.011 0.128 0.033 0.186l-0.001-0.004c0.437-0.081 1.212-0.223 2.593-0.473l0.017-0.579c0.015-0.43 0.367-0.773 0.8-0.773 0 0 0 0 0 0h-0zM6.417 18.065c-0.328 0.145-0.591 0.389-0.757 0.693l-0.004 0.008c-0.018 0.043-0.032 0.093-0.040 0.146l-0 0.003 6.615-0.4-0.097-2.351zM17.128 18.421l6.572 0.4c-0.008-0.058-0.022-0.11-0.043-0.159l0.002 0.004c-0.171-0.309-0.433-0.55-0.749-0.692l-0.010-0.004-5.644-1.879zM23.253 10.233l-4.163-4.244c-0.267-0.274-0.431-0.648-0.431-1.061s0.164-0.787 0.431-1.062l-0 0c0.264-0.272 0.633-0.441 1.041-0.441s0.777 0.169 1.040 0.44l0 0 3.121 3.183 5.2-5.307c0.264-0.272 0.633-0.441 1.041-0.441s0.777 0.169 1.040 0.44l0 0c0.266 0.274 0.43 0.649 0.43 1.061s-0.164 0.787-0.431 1.062l0-0-6.241 6.368c-0.264 0.271-0.633 0.439-1.041 0.439s-0.777-0.168-1.040-0.439l-0-0z"></path>
        </symbol>
        <symbol id="icon-flightstatus-widget" viewBox="0 0 32 32">
            <title>flightstatus-widget</title>
            <path d="M4.687 27.313c-2.841-2.886-4.595-6.849-4.595-11.221 0-8.837 7.163-16 16-16 4.372 0 8.335 1.754 11.223 4.597l-0.002-0.002c2.951 2.904 4.779 6.941 4.779 11.405 0 8.837-7.163 16-16 16-4.464 0-8.501-1.828-11.403-4.777l-0.002-0.002zM2.667 16c0 7.364 5.97 13.333 13.333 13.333s13.333-5.97 13.333-13.333c0-7.364-5.97-13.333-13.333-13.333v0c-7.36 0.008-13.325 5.973-13.333 13.333v0.001zM14.667 17.333c-0.736 0-1.333-0.597-1.333-1.333s0.597-1.333 1.333-1.333v0-8c0-0.736 0.597-1.333 1.333-1.333s1.333 0.597 1.333 1.333v0 8h5.333c0.736 0 1.333 0.597 1.333 1.333s-0.597 1.333-1.333 1.333v0h-5.333c0 0.736-0.597 1.333-1.333 1.333s-1.333-0.597-1.333-1.333v0z"></path>
        </symbol>
  
		<symbol id="icon-evasion-widget" viewBox="0 0 64 32">
            <path fill="#000" style="fill: var(--color1, #000)" d="M47.992 10.568h-3.28v-3.264c-0.124-1.412-1.301-2.511-2.734-2.511-0.071 0-0.141 0.003-0.211 0.008l0.009-0.001h-4.576c-0.060-0.005-0.131-0.007-0.202-0.007-1.434 0-2.61 1.099-2.733 2.501l-0.001 0.010v13.032h1.32v-13.032c0.007-0.393 0.188-0.742 0.47-0.974l0.002-0.002c0.305-0.254 0.701-0.408 1.133-0.408 0.004 0 0.007 0 0.011 0h4.583c0.008-0 0.017-0 0.026-0 0.427 0 0.818 0.154 1.121 0.41l-0.003-0.002c0.285 0.233 0.467 0.583 0.472 0.975v13.033h1.32v-8.64h3.28c0.008-0 0.017-0 0.026-0 0.427 0 0.818 0.154 1.121 0.41l-0.003-0.002c0.285 0.233 0.467 0.583 0.472 0.975v7.257h1.32v-7.256c-0.124-1.416-1.304-2.519-2.742-2.519-0.071 0-0.141 0.003-0.211 0.008l0.009-0.001z"></path>
            <path fill="#000" style="fill: var(--color1, #000)" d="M37.456 7.992h1.128v1.64h-1.128v-1.64z"></path>
            <path fill="#000" style="fill: var(--color1, #000)" d="M40.248 7.992h1.128v1.64h-1.128v-1.64z"></path>
            <path fill="#000" style="fill: var(--color1, #000)" d="M37.456 11.736h1.128v1.64h-1.128v-1.64z"></path>
            <path fill="#000" style="fill: var(--color1, #000)" d="M40.248 11.736h1.128v1.64h-1.128v-1.64z"></path>
            <path fill="#000" style="fill: var(--color1, #000)" d="M37.456 16.28h1.128v1.64h-1.128v-1.64z"></path>
            <path fill="#000" style="fill: var(--color1, #000)" d="M40.248 16.28h1.128v1.64h-1.128v-1.64z"></path>
            <path fill="#000" style="fill: var(--color1, #000)" d="M46.416 13.584h1.128v1.64h-1.128v-1.64z"></path>
            <path fill="#000" style="fill: var(--color1, #000)" d="M15.032 15.104c-0.336-1.024-0.664-2-0.992-2.984-0.16-0.48-0.312-0.952-0.472-1.432-0.007-0.041-0.011-0.088-0.011-0.136 0-0.398 0.285-0.728 0.662-0.799l0.005-0.001c0.124-0.014 0.267-0.021 0.412-0.021 1.266 0 2.395 0.59 3.126 1.509l0.006 0.008c1.024 1.304 2.12 2.56 3.168 3.848 0.245 0.322 0.629 0.528 1.060 0.528 0.072 0 0.143-0.006 0.211-0.017l-0.008 0.001c2.432-0.2 4.872-0.4 7.304-0.576 2.752-0.2 5.496-0.408 8.248-0.544 0.274-0.011 0.595-0.017 0.918-0.017 0.888 0 1.766 0.047 2.63 0.138l-0.108-0.009c1.045 0.16 1.966 0.599 2.711 1.238l-0.007-0.006c0.365 0.243 0.785 0.475 1.224 0.673l0.056 0.023c0.617 0.27 1.123 0.532 1.612 0.821l-0.068-0.037c0.541 0.31 0.9 0.884 0.9 1.542 0 0.588-0.286 1.108-0.727 1.431l-0.005 0.003c-0.75 0.636-1.685 1.076-2.714 1.228l-0.030 0.004c-0.913 0.168-1.969 0.27-3.047 0.28l-0.009 0c-5.152 0.024-10.312 0.048-15.472-0.008-0.103 0.002-0.225 0.003-0.346 0.003-1.925 0-3.782-0.288-5.531-0.822l0.134 0.035c-1.122-0.357-2.093-0.904-2.924-1.61l0.012 0.010c-0.39-0.339-0.692-0.769-0.873-1.259l-0.007-0.021c-0.168-0.464-0.336-0.92-0.488-1.392-0.022-0.167-0.164-0.294-0.335-0.294-0.023 0-0.046 0.002-0.067 0.007l0.002-0c-0.544 0.024-1.096 0.008-1.64 0.008-0.014 0.001-0.031 0.002-0.047 0.002-0.384 0-0.696-0.307-0.705-0.689v-0.001c0.007-0.371 0.309-0.669 0.681-0.669 0.028 0 0.056 0.002 0.083 0.005l-0.003-0c0.48-0.008 0.952 0 1.472 0zM15.168 11.152c-0.006 0.022-0.012 0.049-0.016 0.076l-0 0.004c0.408 1.224 0.808 2.456 1.232 3.68 0.052 0.095 0.145 0.161 0.254 0.176l0.002 0c0.129 0.009 0.279 0.013 0.43 0.013 0.096 0 0.192-0.002 0.288-0.006l-0.014 0c1.152 0 1.528 0.16 1.48 0.68-0.048 0.456-0.12 0.736-1.464 0.664-0.136-0.008-0.272 0-0.456 0 0.136 0.384 0.256 0.704 0.36 1.032 0.156 0.508 0.483 0.925 0.911 1.195l0.009 0.005c0.545 0.365 1.17 0.693 1.829 0.953l0.067 0.023c1.553 0.508 3.34 0.801 5.195 0.801 0.075 0 0.15-0 0.224-0.001l-0.011 0c5.384 0.032 10.76 0.016 16.144 0 0.069 0.002 0.151 0.003 0.233 0.003 1.131 0 2.211-0.215 3.202-0.608l-0.059 0.021c0.337-0.141 0.626-0.302 0.895-0.49l-0.015 0.010c0.544-0.376 0.536-0.736-0.024-1.072-0.298-0.17-0.664-0.35-1.040-0.509l-0.072-0.027c-0.057-0.024-0.122-0.039-0.192-0.040h-0c-0.968 0.016-1.936 0.040-2.904 0.056-0.016 0.001-0.034 0.002-0.053 0.002-0.37 0-0.67-0.3-0.67-0.67s0.3-0.67 0.67-0.67c0.021 0 0.042 0.001 0.063 0.003l-0.003-0c0.224-0.008 0.456 0 0.68 0-0.059-0.090-0.141-0.161-0.236-0.206l-0.004-0.002c-0.642-0.297-1.393-0.47-2.185-0.47-0.138 0-0.274 0.005-0.409 0.016l0.018-0.001c-1.504 0.032-3.008 0.104-4.512 0.192-1.728 0.096-3.456 0.224-5.176 0.352-2.584 0.2-5.16 0.424-7.744 0.616-0.076 0.009-0.163 0.014-0.252 0.014-0.748 0-1.413-0.358-1.832-0.912l-0.004-0.006c-0.592-0.752-1.216-1.488-1.84-2.216s-1.264-1.48-1.92-2.192c-0.244-0.299-0.612-0.489-1.025-0.489-0.020 0-0.039 0-0.058 0.001l0.003-0z"></path>
            <path fill="#000" style="fill: var(--color1, #000)" d="M26.528 22.472c0.001 0 0.003 0 0.004 0 0.555 0 1.004 0.45 1.004 1.004s-0.45 1.004-1.004 1.004c-0.555 0-1.004-0.45-1.004-1.004 0-0.001 0-0.003 0-0.004v0c0.006-0.55 0.45-0.994 0.999-1h0.001z"></path>
            <path fill="#000" style="fill: var(--color1, #000)" d="M42.272 23.48c-0 0.557-0.451 1.008-1.008 1.008s-1.008-0.451-1.008-1.008c0-0.557 0.451-1.008 1.008-1.008 0.003 0 0.006 0 0.008 0h-0c0.553 0.004 1 0.453 1 1.007 0 0 0 0.001 0 0.001v-0z"></path>
            <path fill="#f4f4f4" style="fill: var(--color2, #f4f4f4)" d="M15.168 11.152c0.020-0.001 0.042-0.002 0.065-0.002 0.411 0 0.778 0.187 1.021 0.479l0.002 0.002c0.656 0.712 1.288 1.448 1.92 2.192 0.624 0.728 1.24 1.464 1.84 2.216 0.423 0.56 1.088 0.918 1.836 0.918 0.089 0 0.176-0.005 0.263-0.015l-0.011 0.001c2.584-0.192 5.16-0.424 7.744-0.616 1.728-0.136 3.448-0.256 5.176-0.352 1.504-0.088 3.008-0.16 4.512-0.192 0.118-0.009 0.256-0.015 0.394-0.015 0.791 0 1.541 0.173 2.215 0.484l-0.033-0.014c0.103 0.041 0.185 0.114 0.239 0.206l0.001 0.002c-0.224 0-0.456-0.008-0.68 0-0.016-0.001-0.035-0.002-0.054-0.002-0.37 0-0.67 0.297-0.674 0.666v0c-0 0.003-0 0.006-0 0.009 0 0.367 0.298 0.665 0.665 0.665 0.019 0 0.039-0.001 0.058-0.002l-0.002 0c0.968-0.008 1.936-0.032 2.904-0.056 0.070 0.001 0.135 0.016 0.195 0.041l-0.003-0.001c0.376 0.176 0.76 0.328 1.112 0.536 0.56 0.336 0.568 0.696 0.024 1.072-0.254 0.18-0.544 0.341-0.85 0.469l-0.030 0.011c-0.932 0.372-2.013 0.587-3.143 0.587-0.082 0-0.163-0.001-0.245-0.003l0.012 0c-5.384 0.016-10.76 0.040-16.144 0-0.053 0.001-0.116 0.001-0.178 0.001-1.867 0-3.666-0.293-5.354-0.835l0.124 0.034c-0.726-0.283-1.351-0.611-1.932-0.999l0.036 0.023c-0.437-0.274-0.764-0.692-0.916-1.185l-0.004-0.015c-0.104-0.328-0.224-0.648-0.36-1.032 0.176 0 0.312-0.008 0.456 0 1.344 0.072 1.416-0.208 1.464-0.664 0.048-0.52-0.32-0.68-1.48-0.68-0.082 0.003-0.178 0.005-0.274 0.005-0.151 0-0.302-0.005-0.451-0.014l0.020 0.001c-0.11-0.017-0.203-0.083-0.255-0.174l-0.001-0.002q-0.624-1.84-1.232-3.68c-0.016-0.008 0-0.032 0.008-0.072zM30.216 17.784h-5.288c-0.019-0.002-0.041-0.003-0.063-0.003-0.366 0-0.664 0.288-0.681 0.649l-0 0.002c-0 0.005-0 0.012-0 0.018 0 0.372 0.301 0.673 0.673 0.673 0.022 0 0.044-0.001 0.066-0.003l-0.003 0h10.576c0.162-0 0.314-0.045 0.444-0.122l-0.004 0.002c0.187-0.105 0.311-0.302 0.311-0.528 0-0.069-0.011-0.135-0.033-0.196l0.001 0.004c-0.086-0.286-0.346-0.49-0.655-0.49-0.020 0-0.040 0.001-0.060 0.003l0.003-0c-1.768-0.016-3.528-0.008-5.288-0.008z"></path>
            <path fill="#000" style="fill: var(--color1, #000)" d="M30.216 17.784h5.288c0.017-0.002 0.037-0.002 0.057-0.002 0.308 0 0.569 0.205 0.654 0.486l0.001 0.005c0.021 0.058 0.033 0.126 0.033 0.196 0 0.225-0.125 0.421-0.31 0.522l-0.003 0.002c-0.122 0.075-0.27 0.12-0.429 0.12-0.004 0-0.008-0-0.012-0h0.001q-5.292 0.012-10.576 0c-0.018 0.002-0.040 0.003-0.061 0.003-0.371 0-0.671-0.3-0.671-0.671s0.3-0.671 0.671-0.671c0.024 0 0.049 0.001 0.072 0.004l-0.003-0c1.76 0 3.528 0.008 5.288 0.008z"></path>
    </symbol>
	            
        
    </defs>
</svg>