<svg xmlns:xlink="http://www.w3.org/1999/xlink" xmlns="http://www.w3.org/2000/svg" class="icon icon-widget" viewBox="0 0 64 32" focusable="false" width="64"  height="32" ><defs><symbol id="icon-flights-widget" viewBox="0 0 64 32">
            <title>icon-flights-widget</title>
            <path d="M44.8 24v-8.88c-1.839-0.385-3.2-1.993-3.2-3.919 0-2.209 1.791-4 4-4s4 1.791 4 4c0 1.926-1.361 3.534-3.174 3.915l-0.026 0.005v8.88c0 0.442-0.358 0.8-0.8 0.8s-0.8-0.358-0.8-0.8v0zM43.2 11.2c0 1.325 1.075 2.4 2.4 2.4s2.4-1.075 2.4-2.4c0-1.325-1.075-2.4-2.4-2.4v0c-1.325 0-2.4 1.075-2.4 2.4v0z"></path>
            <path d="M43.208 21.768c-0.081-0.122-0.129-0.272-0.129-0.434 0-0.281 0.146-0.527 0.366-0.668l0.003-0.002c0.122-0.081 0.272-0.129 0.434-0.129 0.281 0 0.527 0.146 0.668 0.366l0.002 0.003c0.079 0.122 0.126 0.271 0.126 0.432 0 0.281-0.145 0.528-0.363 0.67l-0.003 0.002c-0.12 0.080-0.268 0.128-0.427 0.128-0.002 0-0.003 0-0.005 0h0c-0.001 0-0.003 0-0.004 0-0.28 0-0.525-0.145-0.666-0.365l-0.002-0.003zM17.784 20.504c-0.113-0.136-0.181-0.312-0.181-0.505 0-0.248 0.114-0.469 0.292-0.614l0.001-0.001c0.136-0.113 0.312-0.181 0.505-0.181 0.248 0 0.469 0.114 0.614 0.292l0.001 0.001c0.113 0.136 0.181 0.312 0.181 0.505 0 0.248-0.114 0.469-0.292 0.614l-0.001 0.001c-0.132 0.114-0.305 0.184-0.494 0.184-0.003 0-0.007-0-0.010-0h0c-0 0-0 0-0 0-0.248 0-0.47-0.115-0.615-0.294l-0.001-0.002zM41.272 19.504c-0.162-0.148-0.263-0.36-0.263-0.596 0-0.208 0.079-0.397 0.208-0.541l-0.001 0.001c0.147-0.161 0.358-0.262 0.592-0.262 0.206 0 0.395 0.078 0.537 0.207l-0.001-0.001c0.162 0.148 0.263 0.36 0.263 0.596 0 0.208-0.078 0.397-0.207 0.54l0.001-0.001c-0.144 0.162-0.354 0.264-0.587 0.264-0.002 0-0.003 0-0.005-0h0c-0.207-0.001-0.395-0.080-0.537-0.209l0.001 0.001zM20.36 18.6c-0.070-0.117-0.112-0.259-0.112-0.41 0-0.289 0.152-0.542 0.381-0.684l0.003-0.002c0.119-0.073 0.262-0.116 0.416-0.116 0.29 0 0.545 0.154 0.686 0.384l0.002 0.003c0.070 0.117 0.112 0.257 0.112 0.408 0 0.291-0.156 0.546-0.388 0.686l-0.004 0.002c-0.115 0.075-0.256 0.12-0.408 0.12h-0c-0.291-0.003-0.544-0.157-0.686-0.388l-0.002-0.004zM38.816 17.744c-0.243-0.138-0.404-0.395-0.404-0.689 0-0.147 0.040-0.284 0.11-0.402l-0.002 0.004c0.14-0.244 0.399-0.406 0.696-0.406 0.144 0 0.279 0.038 0.395 0.104l-0.004-0.002c0.244 0.14 0.406 0.399 0.406 0.696 0 0.144-0.038 0.279-0.104 0.395l0.002-0.004c-0.14 0.244-0.399 0.406-0.696 0.408h-0c-0.001 0-0.002 0-0.004 0-0.146 0-0.282-0.039-0.4-0.106l0.004 0.002zM23.152 17.032c-0.046-0.098-0.073-0.213-0.073-0.334 0-0.323 0.192-0.602 0.468-0.728l0.005-0.002h-0.008c0.097-0.045 0.211-0.071 0.331-0.071 0.324 0 0.603 0.191 0.731 0.466l0.002 0.005c0.044 0.096 0.070 0.209 0.070 0.327 0 0.322-0.191 0.6-0.465 0.727l-0.005 0.002c-0.096 0.045-0.209 0.072-0.328 0.072-0 0-0 0-0 0v0c-0.001 0-0.001 0-0.002 0-0.32 0-0.596-0.188-0.724-0.459l-0.002-0.005zM36.040 16.512c-0.322-0.109-0.549-0.408-0.549-0.76 0-0.095 0.016-0.186 0.047-0.27l-0.002 0.006c0.111-0.317 0.408-0.539 0.756-0.539 0.093 0 0.182 0.016 0.265 0.045l-0.006-0.002c0.318 0.106 0.543 0.401 0.543 0.749 0 0.096-0.017 0.188-0.048 0.273l0.002-0.005c-0.108 0.318-0.404 0.543-0.752 0.544h-0c-0.092-0.001-0.18-0.016-0.262-0.042l0.006 0.002zM26.104 15.8c-0.020-0.067-0.032-0.144-0.032-0.224 0-0.362 0.24-0.668 0.57-0.767l0.006-0.001c0.069-0.022 0.149-0.035 0.232-0.035 0.361 0 0.665 0.242 0.759 0.573l0.001 0.006c0.020 0.067 0.032 0.144 0.032 0.224 0 0.362-0.24 0.668-0.57 0.767l-0.006 0.001c-0.067 0.018-0.143 0.030-0.222 0.032l-0.002 0c-0.362 0-0.668-0.24-0.767-0.57l-0.001-0.006zM33.088 15.768v0c-0.39-0.055-0.688-0.386-0.688-0.787 0-0.038 0.003-0.076 0.008-0.113l-0.001 0.004c0.049-0.394 0.382-0.696 0.785-0.696 0.039 0 0.078 0.003 0.116 0.008l-0.004-0.001c0.394 0.054 0.695 0.388 0.695 0.793 0 0.036-0.002 0.072-0.007 0.107l0-0.004c-0.056 0.393-0.389 0.692-0.792 0.696h-0c-0.005 0-0.012 0-0.018 0-0.033 0-0.066-0.003-0.097-0.009l0.003 0.001zM29.208 15.024c-0.003-0.024-0.004-0.051-0.004-0.079 0-0.413 0.311-0.754 0.712-0.8l0.004-0c0.025-0.003 0.055-0.004 0.084-0.004 0.412 0 0.752 0.312 0.795 0.713l0 0.004c0.003 0.025 0.004 0.055 0.004 0.084 0 0.412-0.312 0.752-0.713 0.795l-0.004 0c-0.021 0.005-0.046 0.008-0.071 0.008-0.006 0-0.012-0-0.018-0.001l0.001 0c-0.41-0.007-0.746-0.317-0.792-0.716l-0-0.004z"></path>
            <path d="M17.6 21.6v0c-0.032-0.048-3.2-4.664-3.2-6.4 0-1.767 1.433-3.2 3.2-3.2s3.2 1.433 3.2 3.2v0c0 1.736-3.168 6.352-3.2 6.4zM17.6 13.6c-0.884 0-1.6 0.716-1.6 1.6s0.716 1.6 1.6 1.6c0.884 0 1.6-0.716 1.6-1.6v0c-0.003-0.883-0.717-1.597-1.6-1.6h-0z"></path>
        </symbol></defs>
                <use xlink:href="#icon-flights-widget"></use>
            </svg>