<svg xmlns:xlink="http://www.w3.org/1999/xlink" xmlns="http://www.w3.org/2000/svg" class="icon icon-widget" viewBox="0 0 64 32" focusable="false" width="64"  height="32" ><defs><symbol id="icon-PNRAndTicket-widget" viewBox="0 0 64 32">
            <title>icon-PNRAndTicket-widget</title>
            <path d="M39.2 24.8h-22.4c-1.324-0.004-2.396-1.076-2.4-2.4v-12.8c0.004-1.324 1.076-2.396 2.4-2.4h22.4c1.324 0.004 2.396 1.076 2.4 2.4v12.8c-0.004 1.324-1.076 2.396-2.4 2.4h-0zM16.8 8.8c-0.442 0-0.8 0.358-0.8 0.8v0 12.8c0 0.442 0.358 0.8 0.8 0.8v0h22.4c0.442 0 0.8-0.358 0.8-0.8v0-12.8c0-0.442-0.358-0.8-0.8-0.8v0z"></path>
            <path d="M19.2 11.2h8c0.442 0 0.8 0.358 0.8 0.8v0 0c0 0.442-0.358 0.8-0.8 0.8v0h-8c-0.442 0-0.8-0.358-0.8-0.8v0 0c0-0.442 0.358-0.8 0.8-0.8v0z"></path>
            <path d="M19.2 16.8h4.8c0.442 0 0.8 0.358 0.8 0.8v0 0c0 0.442-0.358 0.8-0.8 0.8v0h-4.8c-0.442 0-0.8-0.358-0.8-0.8v0 0c0-0.442 0.358-0.8 0.8-0.8v0z"></path>
            <path d="M32 16.8h4.8c0.442 0 0.8 0.358 0.8 0.8v0 0c0 0.442-0.358 0.8-0.8 0.8v0h-4.8c-0.442 0-0.8-0.358-0.8-0.8v0 0c0-0.442 0.358-0.8 0.8-0.8v0z"></path>
            <path d="M19.2 20h17.6c0.442 0 0.8 0.358 0.8 0.8v0 0c0 0.442-0.358 0.8-0.8 0.8v0h-17.6c-0.442 0-0.8-0.358-0.8-0.8v0 0c0-0.442 0.358-0.8 0.8-0.8v0z"></path>
            <path d="M47.2 24.8h-4.8c-1.324-0.004-2.396-1.076-2.4-2.4v-12.8c0.004-1.324 1.076-2.396 2.4-2.4h4.8c1.324 0.004 2.396 1.076 2.4 2.4v12.8c-0.004 1.324-1.076 2.396-2.4 2.4h-0zM42.4 8.8c-0.442 0-0.8 0.358-0.8 0.8v0 12.8c0 0.442 0.358 0.8 0.8 0.8v0h4.8c0.442 0 0.8-0.358 0.8-0.8v0-12.8c0-0.442-0.358-0.8-0.8-0.8v0z"></path>
        </symbol></defs>
                <use xlink:href="#icon-PNRAndTicket-widget"></use>
            </svg>