<svg xmlns:xlink="http://www.w3.org/1999/xlink" xmlns="http://www.w3.org/2000/svg" class="icon icon-language margin-r-6" focusable="false" width="32"  height="32" ><defs><symbol id="icon-language" viewBox="0 0 32 32">
            <title>language</title>
            <path stroke-linejoin="miter" stroke-linecap="butt" stroke-miterlimit="4" stroke-width="1.3333" d="M4.687 27.313c-2.895-2.879-4.687-6.866-4.687-11.27 0-0.015 0-0.030 0-0.045v0.002c-0-0.013-0-0.028-0-0.043 0-4.404 1.791-8.39 4.685-11.27l0.001-0.001c2.879-2.895 6.866-4.687 11.27-4.687 0.016 0 0.031 0 0.047 0h-0.002c0.013-0 0.028-0 0.043-0 4.405 0 8.392 1.791 11.271 4.685l0.001 0.001c2.894 2.88 4.685 6.866 4.685 11.271 0 0.015-0 0.031-0 0.046v-0.002c0 0.013 0 0.029 0 0.044 0 4.404-1.791 8.39-4.685 11.268l-0.001 0.001c-2.88 2.895-6.868 4.687-11.273 4.687-0.015 0-0.029-0-0.044-0h0.002c-0.013 0-0.028 0-0.043 0-4.405 0-8.391-1.792-11.27-4.686l-0.001-0.001zM17.333 29.067c2.015-0.821 3.703-3.467 4.612-7.031-1.356-0.348-2.935-0.587-4.557-0.665l-0.055-0.002zM10.056 22.036c0.908 3.565 2.596 6.209 4.611 7.031v-7.697c-1.676 0.079-3.255 0.318-4.777 0.701l0.166-0.035zM5.333 24c1.155 1.525 2.591 2.773 4.239 3.684l0.069 0.035c-0.87-1.403-1.582-3.026-2.051-4.748l-0.030-0.13c-0.856 0.347-1.588 0.735-2.274 1.188l0.048-0.030zM22.349 27.717c1.721-0.943 3.161-2.191 4.293-3.684l0.024-0.033c-0.638-0.424-1.37-0.813-2.14-1.128l-0.085-0.031c-0.501 1.852-1.215 3.474-2.133 4.956l0.045-0.079zM24.985 11.717c0.221 1.287 0.347 2.77 0.348 4.282v0.001c0 0.005 0 0.012 0 0.018 0 1.506-0.125 2.984-0.364 4.422l0.021-0.156c1.151 0.455 2.139 0.973 3.062 1.581l-0.062-0.038c0.847-1.701 1.343-3.704 1.343-5.823 0-0.001 0-0.002 0-0.003v0c0-0.001 0-0.002 0-0.003 0-2.12-0.496-4.123-1.377-5.902l0.035 0.078c-0.861 0.57-1.849 1.089-2.889 1.505l-0.111 0.039zM2.667 16c0 0.002 0 0.003 0 0.005 0 2.119 0.496 4.121 1.377 5.899l-0.035-0.077c0.861-0.57 1.849-1.088 2.889-1.503l0.111-0.039c-0.218-1.282-0.343-2.76-0.343-4.266 0-0.006 0-0.013 0-0.019v0.001c0-0.005 0-0.011 0-0.017 0-1.506 0.125-2.983 0.364-4.42l-0.021 0.156c-1.152-0.456-2.14-0.974-3.064-1.583l0.062 0.039c-0.846 1.7-1.341 3.703-1.341 5.821 0 0.002 0 0.003 0 0.005v-0zM22.44 19.457c0.144-1.031 0.227-2.223 0.227-3.433 0-0.008 0-0.017 0-0.025v0.001c0-0.007 0-0.015 0-0.023 0-1.21-0.082-2.401-0.242-3.567l0.015 0.136c-1.504 0.399-3.252 0.67-5.049 0.755l-0.057 0.002v5.397c1.854 0.087 3.603 0.357 5.284 0.795l-0.177-0.039zM9.333 16c0 0.007 0 0.016 0 0.024 0 1.211 0.082 2.402 0.242 3.569l-0.015-0.136c1.503-0.399 3.251-0.67 5.048-0.755l0.057-0.002v-5.397c-1.854-0.087-3.602-0.358-5.283-0.797l0.177 0.039c-0.144 1.031-0.227 2.222-0.227 3.432 0 0.008 0 0.016 0 0.024v-0.001zM17.333 10.635c1.677-0.080 3.256-0.318 4.778-0.702l-0.166 0.035c-0.908-3.567-2.596-6.213-4.612-7.035zM10.056 9.968c1.356 0.348 2.935 0.587 4.556 0.665l0.055 0.002v-7.701c-2.015 0.823-3.703 3.467-4.611 7.035zM24.435 9.16c0.858-0.347 1.592-0.736 2.28-1.19l-0.048 0.030c-1.155-1.526-2.591-2.774-4.239-3.685l-0.069-0.035c0.869 1.404 1.579 3.027 2.046 4.751l0.030 0.129zM5.333 8c0.639 0.424 1.371 0.813 2.142 1.129l0.085 0.031c0.499-1.853 1.211-3.477 2.127-4.961l-0.046 0.080c-1.718 0.946-3.154 2.194-4.284 3.688l-0.024 0.034z"></path>
        </symbol></defs>
                            <use xlink:href="#icon-language"></use>
                        </svg>