<svg xmlns:xlink="http://www.w3.org/1999/xlink" xmlns="http://www.w3.org/2000/svg" class="icon icon-search" focusable="false" width="32"  height="32" ><defs><symbol id="icon-search" viewBox="0 0 32 32">
            <title>search</title>
            <path d="M29.6 31.571l-5.6-5.6c-2.513 2.085-5.772 3.35-9.326 3.35-8.094 0-14.655-6.561-14.655-14.655s6.561-14.655 14.655-14.655c8.094 0 14.655 6.561 14.655 14.655 0 3.558-1.268 6.819-3.376 9.358l0.019-0.024 5.6 5.6c0.253 0.252 0.41 0.601 0.41 0.987 0 0.77-0.624 1.393-1.393 1.393-0.001 0-0.001 0-0.002 0h0c-0.002 0-0.003 0-0.005 0-0.384 0-0.731-0.157-0.981-0.409l-0-0zM2.667 14.667c0 6.627 5.373 12 12 12s12-5.373 12-12c0-6.627-5.373-12-12-12v0c-6.624 0.008-11.992 5.376-12 11.999v0.001zM5.333 14.667c0-5.155 4.179-9.333 9.333-9.333v0 2.667c-3.682 0-6.667 2.985-6.667 6.667v0z"></path>
        </symbol></defs>
                            <use xlink:href="#icon-search"></use>
                        </svg>