<svg aria-hidden="true" focusable="false" style="position: absolute; width: 0; height: 0; overflow: hidden;" version="1.1" xmlns="http://www.w3.org/2000/svg" xmlns:xlink="http://www.w3.org/1999/xlink" width="32"  height="32" >
    <defs>
        <symbol id="icon-search" viewBox="0 0 32 32">
            <title>search</title>
            <path d="M29.6 31.571l-5.6-5.6c-2.513 2.085-5.772 3.35-9.326 3.35-8.094 0-14.655-6.561-14.655-14.655s6.561-14.655 14.655-14.655c8.094 0 14.655 6.561 14.655 14.655 0 3.558-1.268 6.819-3.376 9.358l0.019-0.024 5.6 5.6c0.253 0.252 0.41 0.601 0.41 0.987 0 0.77-0.624 1.393-1.393 1.393-0.001 0-0.001 0-0.002 0h0c-0.002 0-0.003 0-0.005 0-0.384 0-0.731-0.157-0.981-0.409l-0-0zM2.667 14.667c0 6.627 5.373 12 12 12s12-5.373 12-12c0-6.627-5.373-12-12-12v0c-6.624 0.008-11.992 5.376-12 11.999v0.001zM5.333 14.667c0-5.155 4.179-9.333 9.333-9.333v0 2.667c-3.682 0-6.667 2.985-6.667 6.667v0z"></path>
        </symbol>
        <symbol id="icon-help" viewBox="0 0 32 32">
            <title>help</title>
            <path d="M4.685 27.313c-2.895-2.895-4.686-6.895-4.686-11.313 0-8.837 7.163-16 16-16s16 7.163 16 16c0 8.836-7.163 16-15.999 16h-0c-0.013 0-0.028 0-0.043 0-4.405 0-8.392-1.792-11.271-4.686l-0.001-0.001zM2.667 16c0 7.364 5.97 13.333 13.333 13.333s13.333-5.97 13.333-13.333c0-7.364-5.97-13.333-13.333-13.333v0c-7.36 0.008-13.325 5.973-13.333 13.333v0.001zM13.819 24.949c-0.341-0.348-0.551-0.826-0.551-1.352 0-0.532 0.215-1.014 0.563-1.364l-0 0c0.384-0.334 0.889-0.538 1.441-0.538s1.058 0.204 1.444 0.54l-0.003-0.002c0.347 0.331 0.563 0.797 0.563 1.314 0 0.019-0 0.038-0.001 0.057l0-0.003c0.001 0.016 0.001 0.035 0.001 0.054 0 0.508-0.211 0.967-0.551 1.293l-0.001 0.001c-0.389 0.331-0.898 0.532-1.453 0.532s-1.064-0.201-1.457-0.534l0.003 0.003zM13.627 19.804c-0.003-0.083-0.005-0.18-0.005-0.278 0-0.889 0.156-1.742 0.442-2.533l-0.016 0.052c0.369-0.803 0.891-1.478 1.532-2.014l0.009-0.007c0.569-0.469 1.061-1.003 1.474-1.596l0.017-0.026c0.232-0.375 0.37-0.829 0.371-1.316v-0q0-2.092-1.929-2.091c-0.027-0.001-0.059-0.002-0.092-0.002-0.536 0-1.022 0.216-1.375 0.565l0-0c-0.357 0.391-0.576 0.914-0.576 1.488 0 0.023 0 0.045 0.001 0.067l-0-0.003h-3.587c-0.003-0.060-0.004-0.129-0.004-0.2 0-1.382 0.589-2.626 1.529-3.496l0.003-0.003c1.146-0.834 2.581-1.334 4.133-1.334 1.511 0 2.911 0.474 4.059 1.281l-0.023-0.015c0.896 0.827 1.454 2.007 1.454 3.318 0 0.093-0.003 0.186-0.008 0.277l0.001-0.013c0 0.006 0 0.012 0 0.019 0 0.717-0.174 1.394-0.481 1.991l0.011-0.024c-0.451 0.799-0.999 1.483-1.639 2.066l-0.006 0.006-1.001 0.952c-0.584 0.537-0.978 1.273-1.075 2.1l-0.002 0.016-0.049 0.755z"></path>
        </symbol>
        <symbol id="icon-language" viewBox="0 0 32 32">
            <title>language</title>
            <path stroke-linejoin="miter" stroke-linecap="butt" stroke-miterlimit="4" stroke-width="1.3333" d="M4.687 27.313c-2.895-2.879-4.687-6.866-4.687-11.27 0-0.015 0-0.030 0-0.045v0.002c-0-0.013-0-0.028-0-0.043 0-4.404 1.791-8.39 4.685-11.27l0.001-0.001c2.879-2.895 6.866-4.687 11.27-4.687 0.016 0 0.031 0 0.047 0h-0.002c0.013-0 0.028-0 0.043-0 4.405 0 8.392 1.791 11.271 4.685l0.001 0.001c2.894 2.88 4.685 6.866 4.685 11.271 0 0.015-0 0.031-0 0.046v-0.002c0 0.013 0 0.029 0 0.044 0 4.404-1.791 8.39-4.685 11.268l-0.001 0.001c-2.88 2.895-6.868 4.687-11.273 4.687-0.015 0-0.029-0-0.044-0h0.002c-0.013 0-0.028 0-0.043 0-4.405 0-8.391-1.792-11.27-4.686l-0.001-0.001zM17.333 29.067c2.015-0.821 3.703-3.467 4.612-7.031-1.356-0.348-2.935-0.587-4.557-0.665l-0.055-0.002zM10.056 22.036c0.908 3.565 2.596 6.209 4.611 7.031v-7.697c-1.676 0.079-3.255 0.318-4.777 0.701l0.166-0.035zM5.333 24c1.155 1.525 2.591 2.773 4.239 3.684l0.069 0.035c-0.87-1.403-1.582-3.026-2.051-4.748l-0.030-0.13c-0.856 0.347-1.588 0.735-2.274 1.188l0.048-0.030zM22.349 27.717c1.721-0.943 3.161-2.191 4.293-3.684l0.024-0.033c-0.638-0.424-1.37-0.813-2.14-1.128l-0.085-0.031c-0.501 1.852-1.215 3.474-2.133 4.956l0.045-0.079zM24.985 11.717c0.221 1.287 0.347 2.77 0.348 4.282v0.001c0 0.005 0 0.012 0 0.018 0 1.506-0.125 2.984-0.364 4.422l0.021-0.156c1.151 0.455 2.139 0.973 3.062 1.581l-0.062-0.038c0.847-1.701 1.343-3.704 1.343-5.823 0-0.001 0-0.002 0-0.003v0c0-0.001 0-0.002 0-0.003 0-2.12-0.496-4.123-1.377-5.902l0.035 0.078c-0.861 0.57-1.849 1.089-2.889 1.505l-0.111 0.039zM2.667 16c0 0.002 0 0.003 0 0.005 0 2.119 0.496 4.121 1.377 5.899l-0.035-0.077c0.861-0.57 1.849-1.088 2.889-1.503l0.111-0.039c-0.218-1.282-0.343-2.76-0.343-4.266 0-0.006 0-0.013 0-0.019v0.001c0-0.005 0-0.011 0-0.017 0-1.506 0.125-2.983 0.364-4.42l-0.021 0.156c-1.152-0.456-2.14-0.974-3.064-1.583l0.062 0.039c-0.846 1.7-1.341 3.703-1.341 5.821 0 0.002 0 0.003 0 0.005v-0zM22.44 19.457c0.144-1.031 0.227-2.223 0.227-3.433 0-0.008 0-0.017 0-0.025v0.001c0-0.007 0-0.015 0-0.023 0-1.21-0.082-2.401-0.242-3.567l0.015 0.136c-1.504 0.399-3.252 0.67-5.049 0.755l-0.057 0.002v5.397c1.854 0.087 3.603 0.357 5.284 0.795l-0.177-0.039zM9.333 16c0 0.007 0 0.016 0 0.024 0 1.211 0.082 2.402 0.242 3.569l-0.015-0.136c1.503-0.399 3.251-0.67 5.048-0.755l0.057-0.002v-5.397c-1.854-0.087-3.602-0.358-5.283-0.797l0.177 0.039c-0.144 1.031-0.227 2.222-0.227 3.432 0 0.008 0 0.016 0 0.024v-0.001zM17.333 10.635c1.677-0.080 3.256-0.318 4.778-0.702l-0.166 0.035c-0.908-3.567-2.596-6.213-4.612-7.035zM10.056 9.968c1.356 0.348 2.935 0.587 4.556 0.665l0.055 0.002v-7.701c-2.015 0.823-3.703 3.467-4.611 7.035zM24.435 9.16c0.858-0.347 1.592-0.736 2.28-1.19l-0.048 0.030c-1.155-1.526-2.591-2.774-4.239-3.685l-0.069-0.035c0.869 1.404 1.579 3.027 2.046 4.751l0.030 0.129zM5.333 8c0.639 0.424 1.371 0.813 2.142 1.129l0.085 0.031c0.499-1.853 1.211-3.477 2.127-4.961l-0.046 0.080c-1.718 0.946-3.154 2.194-4.284 3.688l-0.024 0.034z"></path>
        </symbol>
        <symbol id="icon-edit" viewBox="0 0 29 32">
            <title>edit</title>
            <path fill="#fff" style="fill: var(--color1, #fff)" d="M6.772 28.174l-0.535-8.302 10.892-18.865 7.993 4.615-10.892 18.865-7.457 3.687z"></path>
            <path fill="#ec671d" style="fill: var(--color2, #ec671d)" d="M17.398 2.013l-10.412 18.034 0.45 6.976 6.267-3.099 10.412-18.034-6.717-3.878zM16.858 0l9.269 5.351-11.372 19.696-8.648 4.276-0.621-9.627 11.372-19.696z"></path>
            <path fill="#ec671d" style="fill: var(--color2, #ec671d)" d="M14.182 4.635l9.269 5.351-0.669 1.159-9.269-5.351z"></path>
            <path fill="#ec671d" style="fill: var(--color2, #ec671d)" d="M6.156 18.538l9.269 5.351-0.669 1.159-9.269-5.351z"></path>
        </symbol>
        <symbol id="icon-loginBig" viewBox="0 0 32 32">
            <path d="M16 0c-8.837 0-16 7.163-16 16s7.163 16 16 16c8.837 0 16-7.163 16-16v0c-0.010-8.832-7.168-15.99-15.999-16h-0.001zM25.237 27.315c-2.498 2.042-5.724 3.279-9.239 3.279-3.458 0-6.637-1.198-9.143-3.202l0.029 0.023c-0.081-0.065-0.141-0.155-0.167-0.257l-0.001-0.003c-0.010-0.036-0.015-0.077-0.015-0.12 0-0.014 0.001-0.028 0.002-0.042l-0 0.002c0.127-1.523 0.83-6.649 4.533-8.665 0.067-0.037 0.147-0.059 0.232-0.059 0.107 0 0.205 0.034 0.285 0.093l-0.001-0.001c1.146 0.843 2.586 1.35 4.143 1.35 1.613 0 3.1-0.543 4.286-1.456l-0.017 0.012c0.080-0.061 0.182-0.098 0.293-0.098 0.079 0 0.153 0.019 0.219 0.052l-0.003-0.001c3.835 1.906 4.595 7.122 4.737 8.676 0.001 0.013 0.002 0.029 0.002 0.045 0 0.15-0.069 0.285-0.176 0.374l-0.001 0.001zM10.189 12.608c0-3.152 2.555-5.707 5.707-5.707s5.707 2.555 5.707 5.707c0 3.152-2.555 5.707-5.707 5.707v0 0c-3.15-0.004-5.702-2.557-5.707-5.706v-0zM27.357 25.182c-0.088 0.091-0.211 0.147-0.348 0.147-0.028 0-0.055-0.002-0.082-0.007l0 0c-0.172-0.029-0.311-0.146-0.372-0.302l-0.001-0.003c-0.015-0.038-0.026-0.081-0.030-0.126l-0-0.002c-0.502-2.491-1.714-5.808-4.631-7.581-0.141-0.086-0.233-0.239-0.233-0.414 0-0.103 0.032-0.198 0.087-0.276l-0.001 0.002c0.78-1.123 1.245-2.514 1.245-4.015 0-3.918-3.176-7.093-7.093-7.093s-7.093 3.176-7.093 7.093c0 1.559 0.503 3 1.355 4.171l-0.014-0.020c0.058 0.079 0.092 0.177 0.092 0.284 0 0.169-0.087 0.318-0.218 0.404l-0.002 0.001c-2.827 1.846-3.98 5.161-4.45 7.617-0.044 0.226-0.241 0.394-0.476 0.394-0.15 0-0.285-0.069-0.374-0.176l-0.001-0.001c-2.075-2.505-3.334-5.751-3.334-9.291 0-8.071 6.543-14.614 14.614-14.614 4.531 0 8.58 2.062 11.26 5.298l0.020 0.024c2.065 2.509 3.317 5.754 3.317 9.291 0 3.46-1.198 6.64-3.201 9.149l0.023-0.029c-0.018 0.027-0.038 0.051-0.059 0.073l0-0z"></path>
        </symbol>
        <symbol id="icon-miles" viewBox="0 0 32 32">
            <path fill="#000" style="fill: var(--color1, #000)" d="M30.831 22.337c-0.38-0.245-0.844-0.391-1.342-0.391-0.391 0-0.761 0.090-1.091 0.25l0.015-0.007-6.167 2.921c0.097-0.251 0.153-0.541 0.153-0.844 0-1.325-1.074-2.399-2.399-2.4h-6.451c-1.349-1.265-3.169-2.043-5.171-2.043-1.34 0-2.599 0.348-3.691 0.96l0.038-0.020-0.067 0.035h-4.659v1.067h4.267v9.067h-4.267v1.067h18.755c1.87-0 3.621-0.507 5.124-1.389l-0.048 0.026 6.915-4c0.754-0.443 1.253-1.25 1.253-2.174 0-0.889-0.462-1.67-1.158-2.116l-0.010-0.006zM30.211 25.71l-6.915 4c-1.303 0.767-2.87 1.22-4.543 1.221h-13.421v-9.282c0.882-0.477 1.931-0.758 3.045-0.758 1.786 0 3.404 0.721 4.578 1.888l-0-0c0.097 0.096 0.23 0.156 0.377 0.156 0 0 0 0 0 0h6.667c0.736 0 1.333 0.597 1.333 1.333s-0.597 1.333-1.333 1.333v0h-6.667c-0.295 0-0.533 0.239-0.533 0.533s0.239 0.533 0.533 0.533h8c0.083-0.001 0.161-0.021 0.231-0.055l-0.003 0.001 7.305-3.462c0.182-0.089 0.396-0.141 0.622-0.141 0.798 0 1.445 0.647 1.445 1.445 0 0.533-0.288 0.998-0.717 1.248l-0.007 0.004z"></path>
            <path fill="#000" style="fill: var(--color1, #000)" d="M26.475 14.767h-1.116c-0.367-4.955-4.381-8.861-9.349-9.056l-0.019-0.001v-0.961c0-0.295-0.239-0.533-0.533-0.533s-0.533 0.239-0.533 0.533v0 0.961c-4.987 0.195-9.001 4.102-9.366 9.024l-0.002 0.032h-1.133c-0.295 0-0.533 0.239-0.533 0.533v0c0.002 1.754 1.423 3.175 3.176 3.177h16.765c1.754-0.002 3.175-1.423 3.177-3.176v-0c0-0.295-0.239-0.533-0.533-0.533v0zM15.459 6.746c0.042-0.001 0.092-0.001 0.142-0.001 4.574 0 8.327 3.515 8.706 7.99l0.002 0.032h-17.701c0.381-4.508 4.134-8.023 8.708-8.023 0.050 0 0.101 0 0.151 0.001l-0.008-0zM23.833 17.413h-16.766c-0.975-0.001-1.796-0.663-2.039-1.562l-0.003-0.015h20.849c-0.247 0.913-1.067 1.574-2.042 1.575h-0z"></path>
            <path fill="#000" style="fill: var(--color1, #000)" d="M14.882 7.603c-4.071 0.281-5.667 2.845-5.733 2.954-0.049 0.079-0.078 0.175-0.078 0.277 0 0.295 0.239 0.534 0.534 0.534 0.192 0 0.361-0.102 0.455-0.254l0.001-0.002c0.055-0.090 1.4-2.204 4.893-2.444 0.279-0.020 0.498-0.251 0.498-0.533 0-0.295-0.239-0.535-0.535-0.535-0.013 0-0.026 0-0.038 0.001l0.002-0z"></path>
            <path fill="#abcec2" style="fill: var(--color2, #abcec2)" d="M9.947 2.577c-0.039-0.225-0.213-0.399-0.435-0.438l-0.003-0c-0.869-0.15-1.545-0.826-1.694-1.683l-0.002-0.012c-0.045-0.253-0.263-0.443-0.526-0.443s-0.481 0.19-0.525 0.44l-0 0.003c-0.149 0.87-0.826 1.546-1.683 1.694l-0.012 0.002c-0.254 0.044-0.445 0.263-0.445 0.526s0.191 0.482 0.442 0.526l0.003 0c0.87 0.149 1.547 0.825 1.694 1.683l0.002 0.012c0.045 0.253 0.263 0.443 0.526 0.443s0.481-0.19 0.525-0.44l0-0.003c0.15-0.869 0.826-1.545 1.683-1.694l0.012-0.002c0.254-0.044 0.445-0.263 0.445-0.526 0-0.031-0.003-0.062-0.008-0.091l0 0.003z"></path>
            <path fill="#abcec2" style="fill: var(--color2, #abcec2)" d="M31.033 10.304c-0.039-0.225-0.213-0.399-0.435-0.438l-0.003-0c-0.869-0.15-1.545-0.826-1.694-1.683l-0.002-0.012c-0.045-0.253-0.263-0.443-0.526-0.443s-0.481 0.19-0.525 0.44l-0 0.003c-0.15 0.869-0.826 1.545-1.683 1.694l-0.012 0.002c-0.254 0.044-0.445 0.263-0.445 0.526s0.191 0.482 0.442 0.526l0.003 0c0.87 0.149 1.546 0.826 1.694 1.683l0.002 0.012c0.045 0.253 0.263 0.443 0.526 0.443s0.481-0.19 0.525-0.44l0-0.003c0.15-0.869 0.826-1.545 1.683-1.694l0.012-0.002c0.254-0.044 0.445-0.263 0.445-0.526 0-0.031-0.003-0.062-0.008-0.091l0 0.003z"></path>
            <path fill="#000" style="fill: var(--color1, #000)" d="M8.162 13.4c-0.294-0-0.533-0.239-0.533-0.533 0-0.106 0.031-0.204 0.084-0.287l-0.001 0.002 0.441-0.696c0.095-0.157 0.264-0.261 0.458-0.261 0.295 0 0.533 0.239 0.533 0.533 0 0.111-0.034 0.214-0.092 0.3l0.001-0.002-0.441 0.696c-0.096 0.15-0.262 0.248-0.451 0.248-0 0-0 0-0 0v0z"></path>
        </symbol>
        <symbol id="icon-earnMiles" viewBox="0 0 32 32">
            <path fill="#000" d="M30.832 22.337c-0.38-0.245-0.844-0.391-1.342-0.391-0.391 0-0.761 0.090-1.091 0.25l0.015-0.006-6.166 2.921c0.097-0.251 0.153-0.541 0.153-0.844 0-1.326-1.075-2.4-2.4-2.4-0 0-0.001 0-0.001 0h-6.451c-1.349-1.265-3.17-2.043-5.171-2.043-1.341 0-2.6 0.349-3.692 0.96l0.038-0.020-0.064 0.035h-4.66v1.067h4.267v9.067h-4.267v1.067h18.755c1.87-0 3.621-0.507 5.125-1.389l-0.048 0.026 6.915-4.003c0.755-0.443 1.254-1.25 1.254-2.174 0-0.889-0.462-1.67-1.159-2.116l-0.010-0.006zM30.213 25.71l-6.915 4.003c-1.303 0.766-2.87 1.219-4.543 1.219h-13.422v-9.284c0.882-0.477 1.931-0.758 3.045-0.758 1.786 0 3.404 0.721 4.578 1.887l-0-0c0.097 0.096 0.23 0.156 0.377 0.156 0 0 0 0 0 0h6.667c0.736 0 1.333 0.597 1.333 1.333s-0.597 1.333-1.333 1.333v0h-6.667c-0.295 0-0.533 0.239-0.533 0.533s0.239 0.533 0.533 0.533h8c0.083-0.001 0.162-0.021 0.232-0.055l-0.003 0.001 7.307-3.462c0.181-0.087 0.393-0.138 0.617-0.138 0.798 0 1.445 0.647 1.445 1.445 0 0.531-0.286 0.995-0.712 1.246l-0.007 0.004z"></path>
            <path fill="#abcec2" d="M5.246 3.192c0.87 0.149 1.546 0.826 1.694 1.683l0.002 0.012c0.044 0.253 0.263 0.444 0.526 0.444s0.481-0.19 0.525-0.44l0-0.003c0.149-0.87 0.826-1.546 1.683-1.694l0.012-0.002c0.255-0.044 0.446-0.262 0.446-0.526s-0.191-0.483-0.443-0.526l-0.003-0c-0.87-0.149-1.546-0.826-1.694-1.683l-0.002-0.012c-0.044-0.253-0.263-0.444-0.526-0.444s-0.481 0.19-0.525 0.44l-0 0.003c-0.149 0.87-0.825 1.547-1.683 1.694l-0.012 0.002c-0.255 0.044-0.446 0.262-0.446 0.526s0.191 0.483 0.443 0.526l0.003 0zM7.467 1.906c0.211 0.298 0.464 0.55 0.752 0.755l0.010 0.007c-0.298 0.211-0.551 0.464-0.755 0.752l-0.007 0.010c-0.211-0.298-0.464-0.551-0.752-0.755l-0.010-0.007c0.298-0.211 0.551-0.464 0.755-0.752l0.007-0.010z"></path>
            <path fill="#abcec2" d="M24.446 16.526c0.87 0.149 1.546 0.826 1.693 1.683l0.002 0.012c0.044 0.254 0.263 0.445 0.526 0.445s0.482-0.191 0.525-0.441l0-0.003c0.149-0.87 0.825-1.546 1.683-1.694l0.012-0.002c0.254-0.044 0.445-0.263 0.445-0.526s-0.191-0.482-0.441-0.525l-0.003-0c-0.869-0.149-1.546-0.826-1.693-1.683l-0.002-0.012c-0.044-0.254-0.263-0.445-0.526-0.445s-0.482 0.191-0.525 0.441l-0 0.003c-0.149 0.87-0.825 1.546-1.683 1.694l-0.012 0.002c-0.254 0.044-0.445 0.263-0.445 0.526s0.191 0.482 0.441 0.525l0.003 0zM26.667 15.238c0.211 0.298 0.464 0.55 0.752 0.755l0.010 0.007c-0.298 0.211-0.551 0.464-0.755 0.752l-0.007 0.010c-0.211-0.298-0.464-0.551-0.752-0.755l-0.010-0.007c0.298-0.211 0.551-0.464 0.755-0.753l0.007-0.010z"></path>
            <path fill="#000" style="fill: var(--color1, #000)" d="M15.943 4.243c-4.125 0-7.468 3.344-7.468 7.469s3.344 7.469 7.469 7.469c0.816 0 1.602-0.131 2.338-0.373l-0.053 0.015c0.217-0.071 0.37-0.272 0.37-0.508 0-0.295-0.239-0.534-0.534-0.534-0.058 0-0.115 0.009-0.167 0.027l0.004-0.001c-0.585 0.195-1.259 0.307-1.959 0.307-3.535 0-6.4-2.865-6.4-6.4s2.865-6.4 6.4-6.4c3.535 0 6.4 2.865 6.4 6.4 0 1.085-0.27 2.108-0.747 3.004l0.017-0.035c-0.038 0.072-0.061 0.157-0.061 0.248 0 0.295 0.239 0.534 0.534 0.534 0.204 0 0.381-0.115 0.471-0.283l0.001-0.003c0.537-1.005 0.852-2.198 0.852-3.465 0-4.126-3.344-7.47-7.469-7.471h-0z"></path>
            <path fill="#000" style="fill: var(--color1, #000)" d="M18.844 9.209c-0.128-0.025-0.276-0.039-0.427-0.039-0.562 0-1.078 0.198-1.482 0.527l0.004-0.003c-0.561 0.474-1.023 1.044-1.363 1.689l-0.015 0.031c-0.4 0.665-0.778 1.293-1.431 1.604-0.198 0.106-0.434 0.169-0.684 0.169-0.236 0-0.46-0.056-0.658-0.155l0.009 0.004c-0.426-0.211-0.721-0.629-0.753-1.12l-0-0.004c-0.002-0.032-0.003-0.069-0.003-0.106 0-0.536 0.254-1.012 0.647-1.316l0.004-0.003c0.235-0.151 0.521-0.24 0.829-0.24 0.492 0 0.931 0.23 1.215 0.588l0.002 0.003c0.098 0.106 0.238 0.172 0.393 0.172 0.295 0 0.534-0.239 0.534-0.534 0-0.14-0.054-0.267-0.142-0.362l0 0c-0.481-0.575-1.199-0.939-2.002-0.939-0.525 0-1.014 0.155-1.423 0.423l0.010-0.006c-0.69 0.497-1.134 1.299-1.134 2.204 0 0.048 0.001 0.096 0.004 0.143l-0-0.007c0.074 1.295 1.14 2.318 2.446 2.324h0.001c0.426-0.004 0.827-0.105 1.184-0.282l-0.016 0.007c0.495-0.249 0.908-0.595 1.225-1.017l0.006-0.009c0.561 0.793 1.474 1.305 2.507 1.305 0.379 0 0.742-0.069 1.077-0.195l-0.021 0.007c0.206-0.077 0.349-0.272 0.349-0.501 0-0.295-0.239-0.534-0.534-0.534-0.066 0-0.13 0.012-0.188 0.034l0.004-0.001c-0.205 0.076-0.442 0.121-0.689 0.121-0.228 0-0.448-0.038-0.652-0.107l0.014 0.004c-0.55-0.193-0.982-0.603-1.199-1.125l-0.005-0.013c0.285-0.549 0.652-1.014 1.092-1.399l0.005-0.005c0.226-0.192 0.521-0.308 0.843-0.308 0.069 0 0.137 0.005 0.203 0.016l-0.007-0.001c0.517 0.128 0.927 0.495 1.113 0.975l0.004 0.011c0.065 0.169 0.103 0.365 0.103 0.57 0 0.214-0.041 0.419-0.117 0.606l0.004-0.011c-0.026 0.061-0.042 0.132-0.042 0.207 0 0.295 0.239 0.533 0.533 0.533 0.227 0 0.42-0.141 0.498-0.341l0.001-0.004c0.12-0.293 0.19-0.634 0.19-0.99 0-1.26-0.873-2.317-2.048-2.597l-0.018-0.004z"></path>
            <path fill="#abcec2" d="M28.001 16c0 0.736-0.597 1.333-1.333 1.333s-1.333-0.597-1.333-1.333c0-0.736 0.597-1.333 1.333-1.333s1.333 0.597 1.333 1.333z"></path>
            <path fill="#abcec2" d="M8.667 2.667c0 0.736-0.597 1.333-1.333 1.333s-1.333-0.597-1.333-1.333c0-0.736 0.597-1.333 1.333-1.333s1.333 0.597 1.333 1.333z"></path>
            <path fill="#000" style="fill: var(--color1, #000)" d="M20.18 9.026c-0.121-0-0.23-0.053-0.304-0.137l-0-0c-0.384-0.363-0.904-0.587-1.476-0.587-0.521 0-0.999 0.185-1.371 0.494l0.004-0.003c-0.072 0.065-0.169 0.105-0.274 0.105-0.227 0-0.411-0.184-0.411-0.411 0-0.122 0.053-0.231 0.137-0.306l0-0c0.509-0.437 1.175-0.702 1.904-0.702 0.046 0 0.093 0.001 0.138 0.003l-0.006-0c0.776 0.008 1.473 0.336 1.968 0.859l0.001 0.001c0.065 0.072 0.105 0.169 0.105 0.275 0 0.227-0.183 0.41-0.41 0.411h-0z"></path>
            <path fill="#000" style="fill: var(--color1, #000)" d="M13.527 15.863q-0.066 0-0.132-0.003c-0.774-0.022-1.47-0.341-1.981-0.845l0 0c-0.077-0.075-0.125-0.179-0.125-0.295 0-0.227 0.184-0.411 0.411-0.411 0.12 0 0.229 0.052 0.304 0.134l0 0c0.385 0.368 0.908 0.595 1.484 0.595 0.517 0 0.991-0.182 1.362-0.487l-0.004 0.003c0.075-0.077 0.179-0.125 0.295-0.125 0.227 0 0.411 0.184 0.411 0.411 0 0.12-0.052 0.229-0.134 0.304l-0 0c-0.482 0.445-1.128 0.718-1.838 0.718-0.019 0-0.037-0-0.056-0.001l0.003 0z"></path>
        </symbol>
        <symbol id="icon-datePicker" viewBox="0 0 32 32">
            <path d="M16 24c0-4.418 3.582-8 8-8s8 3.582 8 8c0 4.418-3.582 8-8 8v0c-4.416-0.005-7.995-3.584-8-7.999v-0.001zM18.667 24c0 2.946 2.388 5.333 5.333 5.333s5.333-2.388 5.333-5.333c0-2.946-2.388-5.333-5.333-5.333v0c-2.946 0-5.333 2.388-5.333 5.333v0zM14.757 29.333h-10.757c-2.209 0-4-1.791-4-4v0-18.667c0-2.209 1.791-4 4-4v0h1.333v-1.333c0-0.736 0.597-1.333 1.333-1.333s1.333 0.597 1.333 1.333v0 1.333h5.333v-1.333c0-0.736 0.597-1.333 1.333-1.333s1.333 0.597 1.333 1.333v0 1.333h5.333v-1.333c0-0.736 0.597-1.333 1.333-1.333s1.333 0.597 1.333 1.333v0 1.333h1.333c2.209 0 4 1.791 4 4v0 8.095c-0.772-0.456-1.664-0.831-2.607-1.079l-0.074-0.017v-7.012c0-0.736-0.597-1.333-1.333-1.333v0h-1.319v1.347c0 0.736-0.597 1.333-1.333 1.333s-1.333-0.597-1.333-1.333v0-1.347h-5.333v1.347c0 0.736-0.597 1.333-1.333 1.333s-1.333-0.597-1.333-1.333v0-1.347h-5.333v1.347c0 0.736-0.597 1.333-1.333 1.333s-1.333-0.597-1.333-1.333v0-1.347h-1.347c-0.736 0-1.333 0.597-1.333 1.333v0 18.667c0 0.736 0.597 1.333 1.333 1.333v0h9.679c0.264 1.017 0.638 1.909 1.12 2.73l-0.027-0.050zM22.667 25.333v-5.333h2.667v2.667h1.333v2.667zM13.333 24h-2.667v-2.667h2.667v2.667zM8 24h-2.667v-2.667h2.667v2.667zM13.333 18.667h-2.667v-2.667h2.667v2.667zM8 18.667h-2.667v-2.667h2.667v2.667zM24 13.333h-2.667v-2.667h2.667v2.667zM18.667 13.333h-2.667v-2.667h2.667v2.667zM13.333 13.333h-2.667v-2.667h2.667v2.667zM8 13.333h-2.667v-2.667h2.667v2.667z"></path>
        </symbol>
        <symbol id="icon-clock" viewBox="0 0 24 20">
            <path transform="translate(-390 -588)" fill="#ffffff" d="M403.714,588a10.147,10.147,0,0,0-10.286,10H390l4.446,4.322.08.156L399.143,598h-3.428a8,8,0,1,1,8,7.778,8.05,8.05,0,0,1-5.646-2.289l-1.623,1.578A10.382,10.382,0,0,0,403.714,608a10,10,0,1,0,0-20Zm-1.143,5.555v5.556l4.892,2.822.823-1.345-4-2.311v-4.722Z"></path>
        </symbol>
        <symbol id="icon-login" viewBox="0 0 32 32">
            <path d="M16 32c-8.836-0.001-15.998-7.164-15.998-16s7.163-16 16-16 16 7.163 16 16c0 4.419-1.791 8.419-4.687 11.315v0c-2.88 2.894-6.867 4.685-11.271 4.685-0.015 0-0.030-0-0.046-0h0.002zM12.924 20.721v0c-2.342 1.273-4.038 3.483-4.596 6.113l-0.011 0.059c2.137 1.527 4.803 2.441 7.683 2.441s5.545-0.914 7.723-2.468l-0.041 0.027c-0.569-2.69-2.265-4.899-4.559-6.15l-0.048-0.024c-0.909 0.387-1.966 0.613-3.075 0.613s-2.167-0.225-3.128-0.632l0.053 0.020zM16 5.333c0 0 0 0 0 0 4.418 0 8 3.582 8 8 0 2.26-0.937 4.3-2.443 5.755l-0.002 0.002c1.997 1.431 3.512 3.421 4.327 5.741l0.025 0.083c2.126-2.353 3.427-5.486 3.427-8.924 0-7.364-5.97-13.333-13.333-13.333s-13.333 5.97-13.333 13.333c0 3.437 1.301 6.571 3.437 8.935l-0.010-0.012c0.84-2.403 2.354-4.393 4.316-5.8l0.036-0.024c-1.509-1.457-2.445-3.498-2.445-5.757 0-4.418 3.582-8 8-8 0 0 0 0 0 0v0zM16 8c-2.946 0-5.333 2.388-5.333 5.333s2.388 5.333 5.333 5.333c2.946 0 5.333-2.388 5.333-5.333v0c0-2.946-2.388-5.333-5.333-5.333v0z"></path>
        </symbol>
        <symbol id="icon-map" viewBox="0 0 32 32">
            <path fill="rgba(255, 255, 255, 0.7)" stroke="#000" stroke-linejoin="round" stroke-linecap="butt" stroke-miterlimit="4" stroke-width="1.4545" d="M31 16c0 8.284-6.716 15-15 15s-15-6.716-15-15c0-8.284 6.716-15 15-15s15 6.716 15 15z"></path>
            <path fill="none" stroke="#000" stroke-linejoin="round" stroke-linecap="butt" stroke-miterlimit="4" stroke-width="1.4545" d="M30.318 16c0 7.908-6.41 14.318-14.318 14.318s-14.318-6.41-14.318-14.318c0-7.908 6.41-14.318 14.318-14.318s14.318 6.41 14.318 14.318z"></path>
            <path fill="#000" d="M16 8.5c-3.012 0-5.455 2.238-5.455 5s5.455 10 5.455 10 5.455-7.238 5.455-10-2.442-5-5.455-5zM16 16c-1.289-0.116-2.291-1.191-2.291-2.5 0-1.386 1.123-2.509 2.509-2.509s2.509 1.123 2.509 2.509c0 0 0 0 0 0v0c-0.065 1.395-1.213 2.502-2.618 2.502-0.038 0-0.076-0.001-0.114-0.002l0.005 0z"></path>
        </symbol>
        <symbol id="icon-contact" viewBox="0 0 38 32">
            <path d="M36.996 19.040c-0.445-0.328-1.004-0.525-1.609-0.525-0.474 0-0.92 0.121-1.308 0.333l0.014-0.007-7.398 3.925c0.127-0.339 0.2-0.73 0.2-1.139 0-1.315-0.76-2.452-1.864-2.997l-0.020-0.009c-0.298-0.132-0.645-0.21-1.010-0.213h-7.743c-1.534-1.683-3.735-2.734-6.182-2.734-1.632 0-3.154 0.468-4.44 1.276l0.035-0.020-0.081 0.047h-5.589v1.431h5.12v12.16h-5.12v1.431h22.505c2.268-0.008 4.375-0.689 6.134-1.854l-0.042 0.026 8.297-5.365c0.92-0.659 1.513-1.725 1.513-2.929 0-0.611-0.152-1.186-0.421-1.69l0.009 0.019c-0.242-0.469-0.578-0.858-0.987-1.154l-0.009-0.006zM36.254 23.563l-8.307 5.365c-1.536 1.019-3.421 1.63-5.448 1.638h-16.098v-12.45c1.050-0.635 2.319-1.011 3.676-1.011 2.186 0 4.145 0.976 5.463 2.516l0.008 0.010c0.11 0.128 0.271 0.21 0.452 0.213h8.001c0.902 0.107 1.595 0.867 1.595 1.789s-0.693 1.682-1.587 1.788l-0.009 0.001h-8c-0.355 0.049-0.625 0.35-0.625 0.715s0.27 0.666 0.621 0.714l0.004 0h9.6c0.1-0.002 0.194-0.028 0.276-0.074l-0.003 0.002 8.768-4.644c0.218-0.113 0.477-0.18 0.751-0.18 0.714 0 1.322 0.451 1.556 1.084l0.004 0.012c0.11 0.244 0.174 0.529 0.174 0.829 0 0.693-0.343 1.306-0.868 1.679l-0.006 0.004z"></path>
            <path d="M30.598 1.122l-0.015-0.023c-0.541-0.666-1.359-1.088-2.276-1.088h-17.824c-0 0-0 0-0 0-0.92 0-1.74 0.425-2.276 1.089l-0.004 0.006v0.013c-0.399 0.5-0.64 1.141-0.64 1.839v10.453c0 0.001 0 0.001 0 0.002 0 1.625 1.314 2.942 2.937 2.948h17.814c1.616-0.016 2.921-1.33 2.921-2.948 0-0.006-0-0.012-0-0.018v0.001-10.453c-0.001-0.691-0.241-1.325-0.64-1.826l0.005 0.006zM29.813 2.95v10.453c-0.001 0.24-0.058 0.467-0.158 0.668l0.004-0.009-6.997-5.722 7.121-5.692c0.018 0.088 0.028 0.188 0.028 0.291 0 0 0 0.001 0 0.001v-0zM28.299 1.423c0 0 0 0 0.001 0 0.213 0 0.416 0.045 0.6 0.125l-0.010-0.004-9.5 7.584-9.491-7.586c0.171-0.077 0.371-0.123 0.581-0.126h0.001zM9.137 14.089c-0.104-0.198-0.165-0.433-0.166-0.682v-10.464c0.001-0.107 0.012-0.211 0.034-0.311l-0.002 0.010 7.142 5.709zM10.485 14.942c-0.041 0-0.079 0-0.119-0.013l6.914-5.653 1.668 1.333c0.052 0.039 0.111 0.072 0.174 0.096l0.005 0.002 0.058 0.019c0.058 0.018 0.124 0.030 0.193 0.032l0.001 0h0.015c0.070-0.002 0.136-0.013 0.199-0.033l-0.005 0.001 0.058-0.019c0.068-0.026 0.128-0.059 0.181-0.099l-0.002 0.001 1.69-1.35 6.931 5.666c-0.045 0.008-0.1 0.014-0.156 0.017l-0.004 0z"></path>
        </symbol>
        <symbol id="icon-information" viewBox="0 0 32 32">
            <path fill="#ec671d" d="M16 32c-8.837 0-16-7.163-16-16s7.163-16 16-16c8.837 0 16 7.163 16 16v0c0 8.837-7.163 16-16 16v0zM16 3c-7.18 0-13 5.82-13 13s5.82 13 13 13c7.18 0 13-5.82 13-13v0c0-7.18-5.82-13-13-13v0zM16 24.982c-1.146 0-2.013-0.598-2.013-1.565v-8.858c0-0.96 0.867-1.563 2.013-1.563 1.12 0 2.013 0.621 2.013 1.563v8.859c0.002 0.942-0.893 1.563-2.013 1.563zM16 11c-1.103 0-1.997-0.894-1.997-1.997s0.894-1.997 1.997-1.997c1.102 0 1.996 0.893 1.997 1.995v0c-0.001 1.103-0.894 1.997-1.997 1.998h-0z"></path>
        </symbol>
        <symbol id="icon-flight" viewBox="0 0 122 22">
            <g transform="translate(-969 -407)">
                <line x2="70" transform="translate(969 417)" fill="none" stroke="#000" stroke-width="2"></line>
                <line x2="30" transform="translate(1013 413)" fill="none" stroke="#000" stroke-width="2"></line>
                <path d="M652.611,506.209c3.846,3.371,16.963,4.057,16.963,4.057l.109-.071-4.69,8.6,4.509-.172,10.822-8.989s9.221.379,11.4-.591-1.218-2.432-2.689-3.28c-1.564-1.164-4.6-2.337-9.657-2.03-10.732.543-20.91,1.109-20.91,1.109l-5.319-5.977-2.717.083Zm12.914-3.218-2.955-3.651,4.489-.545,6.482,3.732Z" transform="translate(398.572 -91.796)"></path>
            </g>
        </symbol>
        <symbol id="icon-flightSearch" viewBox="0 0 32 32">
            <path d="M10.667 21.333c0-5.891 4.776-10.667 10.667-10.667s10.667 4.776 10.667 10.667v0c0 0.009 0 0.020 0 0.031 0 2.463-0.843 4.729-2.257 6.525l0.017-0.023 1.767 1.767c0.282 0.259 0.458 0.629 0.458 1.040 0 0.363-0.137 0.693-0.362 0.943l0.001-0.001c-0.229 0.225-0.543 0.364-0.889 0.364-0.005 0-0.010-0-0.016-0h0.001c-0.423-0.006-0.803-0.181-1.079-0.46l-1.766-1.767c-1.777 1.402-4.048 2.248-6.517 2.248-0.009 0-0.018 0-0.027-0h0.001c-5.888-0.007-10.66-4.778-10.667-10.666v-0.001zM13.333 21.333c0 4.418 3.582 8 8 8s8-3.582 8-8c0-4.418-3.582-8-8-8v0c-4.416 0.005-7.995 3.584-8 7.999v0.001zM1.333 13.333c-0.736 0-1.333-0.597-1.333-1.333s0.597-1.333 1.333-1.333v0h8c0.736 0 1.333 0.597 1.333 1.333s-0.597 1.333-1.333 1.333v0zM1.333 8c-0.736 0-1.333-0.597-1.333-1.333s0.597-1.333 1.333-1.333v0h29.333c0.736 0 1.333 0.597 1.333 1.333s-0.597 1.333-1.333 1.333v0zM1.333 2.667c-0.736 0-1.333-0.597-1.333-1.333s0.597-1.333 1.333-1.333v0h29.333c0.736 0 1.333 0.597 1.333 1.333s-0.597 1.333-1.333 1.333v0z"></path>
        </symbol>
        <symbol id="icon-fromtoSwitch" viewBox="0 0 32 32">
            <path fill="#4b7d6b" d="M10 12v4l-10-5.992 10-6.008v4c2.209 0 16 1.015 16 6.667-1.669-1.050-3.646-1.775-5.767-2.036l-0.069-0.007c-2.906-0.398-6.265-0.626-9.676-0.626-0.171 0-0.343 0.001-0.514 0.002l0.026-0zM22 20v-4l10 5.992-10 6.008v-4c-2.209 0-16-1.015-16-6.667 1.669 1.050 3.646 1.775 5.767 2.036l0.069 0.007c2.907 0.398 6.267 0.626 9.68 0.626 0.17 0 0.341-0.001 0.511-0.002l-0.026 0z"></path>
        </symbol>
    </defs>
</svg>