<svg xmlns:xlink="http://www.w3.org/1999/xlink" xmlns="http://www.w3.org/2000/svg" class="icon icon-widget" viewBox="0 0 64 32" focusable="false" width="80"  height="40" ><defs><symbol id="icon-evasion-widget" viewBox="0 0 64 32">
            <path fill="#000" style="fill: var(--color1, #000)" d="M47.992 10.568h-3.28v-3.264c-0.124-1.412-1.301-2.511-2.734-2.511-0.071 0-0.141 0.003-0.211 0.008l0.009-0.001h-4.576c-0.060-0.005-0.131-0.007-0.202-0.007-1.434 0-2.61 1.099-2.733 2.501l-0.001 0.010v13.032h1.32v-13.032c0.007-0.393 0.188-0.742 0.47-0.974l0.002-0.002c0.305-0.254 0.701-0.408 1.133-0.408 0.004 0 0.007 0 0.011 0h4.583c0.008-0 0.017-0 0.026-0 0.427 0 0.818 0.154 1.121 0.41l-0.003-0.002c0.285 0.233 0.467 0.583 0.472 0.975v13.033h1.32v-8.64h3.28c0.008-0 0.017-0 0.026-0 0.427 0 0.818 0.154 1.121 0.41l-0.003-0.002c0.285 0.233 0.467 0.583 0.472 0.975v7.257h1.32v-7.256c-0.124-1.416-1.304-2.519-2.742-2.519-0.071 0-0.141 0.003-0.211 0.008l0.009-0.001z"></path>
            <path fill="#000" style="fill: var(--color1, #000)" d="M37.456 7.992h1.128v1.64h-1.128v-1.64z"></path>
            <path fill="#000" style="fill: var(--color1, #000)" d="M40.248 7.992h1.128v1.64h-1.128v-1.64z"></path>
            <path fill="#000" style="fill: var(--color1, #000)" d="M37.456 11.736h1.128v1.64h-1.128v-1.64z"></path>
            <path fill="#000" style="fill: var(--color1, #000)" d="M40.248 11.736h1.128v1.64h-1.128v-1.64z"></path>
            <path fill="#000" style="fill: var(--color1, #000)" d="M37.456 16.28h1.128v1.64h-1.128v-1.64z"></path>
            <path fill="#000" style="fill: var(--color1, #000)" d="M40.248 16.28h1.128v1.64h-1.128v-1.64z"></path>
            <path fill="#000" style="fill: var(--color1, #000)" d="M46.416 13.584h1.128v1.64h-1.128v-1.64z"></path>
            <path fill="#000" style="fill: var(--color1, #000)" d="M15.032 15.104c-0.336-1.024-0.664-2-0.992-2.984-0.16-0.48-0.312-0.952-0.472-1.432-0.007-0.041-0.011-0.088-0.011-0.136 0-0.398 0.285-0.728 0.662-0.799l0.005-0.001c0.124-0.014 0.267-0.021 0.412-0.021 1.266 0 2.395 0.59 3.126 1.509l0.006 0.008c1.024 1.304 2.12 2.56 3.168 3.848 0.245 0.322 0.629 0.528 1.060 0.528 0.072 0 0.143-0.006 0.211-0.017l-0.008 0.001c2.432-0.2 4.872-0.4 7.304-0.576 2.752-0.2 5.496-0.408 8.248-0.544 0.274-0.011 0.595-0.017 0.918-0.017 0.888 0 1.766 0.047 2.63 0.138l-0.108-0.009c1.045 0.16 1.966 0.599 2.711 1.238l-0.007-0.006c0.365 0.243 0.785 0.475 1.224 0.673l0.056 0.023c0.617 0.27 1.123 0.532 1.612 0.821l-0.068-0.037c0.541 0.31 0.9 0.884 0.9 1.542 0 0.588-0.286 1.108-0.727 1.431l-0.005 0.003c-0.75 0.636-1.685 1.076-2.714 1.228l-0.030 0.004c-0.913 0.168-1.969 0.27-3.047 0.28l-0.009 0c-5.152 0.024-10.312 0.048-15.472-0.008-0.103 0.002-0.225 0.003-0.346 0.003-1.925 0-3.782-0.288-5.531-0.822l0.134 0.035c-1.122-0.357-2.093-0.904-2.924-1.61l0.012 0.010c-0.39-0.339-0.692-0.769-0.873-1.259l-0.007-0.021c-0.168-0.464-0.336-0.92-0.488-1.392-0.022-0.167-0.164-0.294-0.335-0.294-0.023 0-0.046 0.002-0.067 0.007l0.002-0c-0.544 0.024-1.096 0.008-1.64 0.008-0.014 0.001-0.031 0.002-0.047 0.002-0.384 0-0.696-0.307-0.705-0.689v-0.001c0.007-0.371 0.309-0.669 0.681-0.669 0.028 0 0.056 0.002 0.083 0.005l-0.003-0c0.48-0.008 0.952 0 1.472 0zM15.168 11.152c-0.006 0.022-0.012 0.049-0.016 0.076l-0 0.004c0.408 1.224 0.808 2.456 1.232 3.68 0.052 0.095 0.145 0.161 0.254 0.176l0.002 0c0.129 0.009 0.279 0.013 0.43 0.013 0.096 0 0.192-0.002 0.288-0.006l-0.014 0c1.152 0 1.528 0.16 1.48 0.68-0.048 0.456-0.12 0.736-1.464 0.664-0.136-0.008-0.272 0-0.456 0 0.136 0.384 0.256 0.704 0.36 1.032 0.156 0.508 0.483 0.925 0.911 1.195l0.009 0.005c0.545 0.365 1.17 0.693 1.829 0.953l0.067 0.023c1.553 0.508 3.34 0.801 5.195 0.801 0.075 0 0.15-0 0.224-0.001l-0.011 0c5.384 0.032 10.76 0.016 16.144 0 0.069 0.002 0.151 0.003 0.233 0.003 1.131 0 2.211-0.215 3.202-0.608l-0.059 0.021c0.337-0.141 0.626-0.302 0.895-0.49l-0.015 0.010c0.544-0.376 0.536-0.736-0.024-1.072-0.298-0.17-0.664-0.35-1.040-0.509l-0.072-0.027c-0.057-0.024-0.122-0.039-0.192-0.040h-0c-0.968 0.016-1.936 0.040-2.904 0.056-0.016 0.001-0.034 0.002-0.053 0.002-0.37 0-0.67-0.3-0.67-0.67s0.3-0.67 0.67-0.67c0.021 0 0.042 0.001 0.063 0.003l-0.003-0c0.224-0.008 0.456 0 0.68 0-0.059-0.090-0.141-0.161-0.236-0.206l-0.004-0.002c-0.642-0.297-1.393-0.47-2.185-0.47-0.138 0-0.274 0.005-0.409 0.016l0.018-0.001c-1.504 0.032-3.008 0.104-4.512 0.192-1.728 0.096-3.456 0.224-5.176 0.352-2.584 0.2-5.16 0.424-7.744 0.616-0.076 0.009-0.163 0.014-0.252 0.014-0.748 0-1.413-0.358-1.832-0.912l-0.004-0.006c-0.592-0.752-1.216-1.488-1.84-2.216s-1.264-1.48-1.92-2.192c-0.244-0.299-0.612-0.489-1.025-0.489-0.020 0-0.039 0-0.058 0.001l0.003-0z"></path>
            <path fill="#000" style="fill: var(--color1, #000)" d="M26.528 22.472c0.001 0 0.003 0 0.004 0 0.555 0 1.004 0.45 1.004 1.004s-0.45 1.004-1.004 1.004c-0.555 0-1.004-0.45-1.004-1.004 0-0.001 0-0.003 0-0.004v0c0.006-0.55 0.45-0.994 0.999-1h0.001z"></path>
            <path fill="#000" style="fill: var(--color1, #000)" d="M42.272 23.48c-0 0.557-0.451 1.008-1.008 1.008s-1.008-0.451-1.008-1.008c0-0.557 0.451-1.008 1.008-1.008 0.003 0 0.006 0 0.008 0h-0c0.553 0.004 1 0.453 1 1.007 0 0 0 0.001 0 0.001v-0z"></path>
            <path fill="#f4f4f4" style="fill: var(--color2, #f4f4f4)" d="M15.168 11.152c0.020-0.001 0.042-0.002 0.065-0.002 0.411 0 0.778 0.187 1.021 0.479l0.002 0.002c0.656 0.712 1.288 1.448 1.92 2.192 0.624 0.728 1.24 1.464 1.84 2.216 0.423 0.56 1.088 0.918 1.836 0.918 0.089 0 0.176-0.005 0.263-0.015l-0.011 0.001c2.584-0.192 5.16-0.424 7.744-0.616 1.728-0.136 3.448-0.256 5.176-0.352 1.504-0.088 3.008-0.16 4.512-0.192 0.118-0.009 0.256-0.015 0.394-0.015 0.791 0 1.541 0.173 2.215 0.484l-0.033-0.014c0.103 0.041 0.185 0.114 0.239 0.206l0.001 0.002c-0.224 0-0.456-0.008-0.68 0-0.016-0.001-0.035-0.002-0.054-0.002-0.37 0-0.67 0.297-0.674 0.666v0c-0 0.003-0 0.006-0 0.009 0 0.367 0.298 0.665 0.665 0.665 0.019 0 0.039-0.001 0.058-0.002l-0.002 0c0.968-0.008 1.936-0.032 2.904-0.056 0.070 0.001 0.135 0.016 0.195 0.041l-0.003-0.001c0.376 0.176 0.76 0.328 1.112 0.536 0.56 0.336 0.568 0.696 0.024 1.072-0.254 0.18-0.544 0.341-0.85 0.469l-0.030 0.011c-0.932 0.372-2.013 0.587-3.143 0.587-0.082 0-0.163-0.001-0.245-0.003l0.012 0c-5.384 0.016-10.76 0.040-16.144 0-0.053 0.001-0.116 0.001-0.178 0.001-1.867 0-3.666-0.293-5.354-0.835l0.124 0.034c-0.726-0.283-1.351-0.611-1.932-0.999l0.036 0.023c-0.437-0.274-0.764-0.692-0.916-1.185l-0.004-0.015c-0.104-0.328-0.224-0.648-0.36-1.032 0.176 0 0.312-0.008 0.456 0 1.344 0.072 1.416-0.208 1.464-0.664 0.048-0.52-0.32-0.68-1.48-0.68-0.082 0.003-0.178 0.005-0.274 0.005-0.151 0-0.302-0.005-0.451-0.014l0.020 0.001c-0.11-0.017-0.203-0.083-0.255-0.174l-0.001-0.002q-0.624-1.84-1.232-3.68c-0.016-0.008 0-0.032 0.008-0.072zM30.216 17.784h-5.288c-0.019-0.002-0.041-0.003-0.063-0.003-0.366 0-0.664 0.288-0.681 0.649l-0 0.002c-0 0.005-0 0.012-0 0.018 0 0.372 0.301 0.673 0.673 0.673 0.022 0 0.044-0.001 0.066-0.003l-0.003 0h10.576c0.162-0 0.314-0.045 0.444-0.122l-0.004 0.002c0.187-0.105 0.311-0.302 0.311-0.528 0-0.069-0.011-0.135-0.033-0.196l0.001 0.004c-0.086-0.286-0.346-0.49-0.655-0.49-0.020 0-0.040 0.001-0.060 0.003l0.003-0c-1.768-0.016-3.528-0.008-5.288-0.008z"></path>
            <path fill="#000" style="fill: var(--color1, #000)" d="M30.216 17.784h5.288c0.017-0.002 0.037-0.002 0.057-0.002 0.308 0 0.569 0.205 0.654 0.486l0.001 0.005c0.021 0.058 0.033 0.126 0.033 0.196 0 0.225-0.125 0.421-0.31 0.522l-0.003 0.002c-0.122 0.075-0.27 0.12-0.429 0.12-0.004 0-0.008-0-0.012-0h0.001q-5.292 0.012-10.576 0c-0.018 0.002-0.040 0.003-0.061 0.003-0.371 0-0.671-0.3-0.671-0.671s0.3-0.671 0.671-0.671c0.024 0 0.049 0.001 0.072 0.004l-0.003-0c1.76 0 3.528 0.008 5.288 0.008z"></path>
    </symbol></defs>
                <use xlink:href="#icon-evasion-widget"></use>
            </svg>