<svg xmlns:xlink="http://www.w3.org/1999/xlink" xmlns="http://www.w3.org/2000/svg" class="btn-icon icon-flightSearch" focusable="false" width="32"  height="32" ><defs><symbol id="icon-flightSearch" viewBox="0 0 32 32">
            <path d="M10.667 21.333c0-5.891 4.776-10.667 10.667-10.667s10.667 4.776 10.667 10.667v0c0 0.009 0 0.020 0 0.031 0 2.463-0.843 4.729-2.257 6.525l0.017-0.023 1.767 1.767c0.282 0.259 0.458 0.629 0.458 1.040 0 0.363-0.137 0.693-0.362 0.943l0.001-0.001c-0.229 0.225-0.543 0.364-0.889 0.364-0.005 0-0.010-0-0.016-0h0.001c-0.423-0.006-0.803-0.181-1.079-0.46l-1.766-1.767c-1.777 1.402-4.048 2.248-6.517 2.248-0.009 0-0.018 0-0.027-0h0.001c-5.888-0.007-10.66-4.778-10.667-10.666v-0.001zM13.333 21.333c0 4.418 3.582 8 8 8s8-3.582 8-8c0-4.418-3.582-8-8-8v0c-4.416 0.005-7.995 3.584-8 7.999v0.001zM1.333 13.333c-0.736 0-1.333-0.597-1.333-1.333s0.597-1.333 1.333-1.333v0h8c0.736 0 1.333 0.597 1.333 1.333s-0.597 1.333-1.333 1.333v0zM1.333 8c-0.736 0-1.333-0.597-1.333-1.333s0.597-1.333 1.333-1.333v0h29.333c0.736 0 1.333 0.597 1.333 1.333s-0.597 1.333-1.333 1.333v0zM1.333 2.667c-0.736 0-1.333-0.597-1.333-1.333s0.597-1.333 1.333-1.333v0h29.333c0.736 0 1.333 0.597 1.333 1.333s-0.597 1.333-1.333 1.333v0z"></path>
        </symbol></defs>
                            <use xlink:href="#icon-flightSearch"></use>
                        </svg>