<svg xmlns:xlink="http://www.w3.org/1999/xlink" xmlns="http://www.w3.org/2000/svg" width="37" height="53" viewBox="0 0 37 53"><g transform="translate(-809 -2872)"><path d="M827.836,2918.959s-25.577-20.136-14.8-37.569c.013.681,9.742-16.783,27.582-2.012.349.68,7.387,5.691,1.345,22.809C841.977,2902.868,832.209,2915.27,827.836,2918.959Z" fill="#ed5500"/><g transform="translate(808.966 2849.222)"><path d="M18.534,22.778a18.561,18.561,0,0,0-18.5,18.58c0,6.361,3.013,13.2,8.955,20.327.883,1.059,1.763,2.04,2.607,2.936-3.837,1.052-6.14,2.941-6.14,5.147,0,3.9,6.738,6.011,13.078,6.011s13.078-2.107,13.078-6.011c0-2.2-2.3-4.094-6.137-5.146a60.432,60.432,0,0,0,4.744-5.666,1.108,1.108,0,1,0-1.781-1.318,59.589,59.589,0,0,1-5.715,6.631,1.109,1.109,0,0,0-.482.481c-1.6,1.577-2.942,2.746-3.7,3.385-.754-.633-2.078-1.787-3.655-3.343a1.109,1.109,0,0,0-.555-.553C9.313,59.176,2.247,50.429,2.247,41.358a16.287,16.287,0,1,1,32.574,0c0,3.939-1.336,8.192-3.972,12.643a1.108,1.108,0,1,0,1.9,1.136c2.842-4.8,4.283-9.435,4.283-13.779A18.561,18.561,0,0,0,18.534,22.778Zm-.677,47.668a1.1,1.1,0,0,0,1.354,0,56.312,56.312,0,0,0,4.449-3.974c3.732.764,5.738,2.236,5.738,3.3,0,.791-1.08,1.724-2.818,2.436a21.973,21.973,0,0,1-8.047,1.353c-6.633,0-10.865-2.244-10.865-3.789,0-1.061,2.007-2.532,5.741-3.3A56.3,56.3,0,0,0,17.857,70.446Z"/><path d="M18.534,33.279a7.955,7.955,0,0,0-4.812,1.6,1.11,1.11,0,0,0,1.325,1.78A5.764,5.764,0,0,1,18.534,35.5a5.845,5.845,0,1,1-5.605,4.237,1.107,1.107,0,1,0-2.127-.613,8.041,8.041,0,1,0,7.732-5.846Z"/></g></g></svg>