<svg xmlns="http://www.w3.org/2000/svg" xmlns:xlink="http://www.w3.org/1999/xlink" width="24" height="24" viewBox="0 0 24 24"><defs><clipPath id="b"><rect width="24" height="24"/></clipPath></defs><g id="a" clip-path="url(#b)"><path d="M539.5,1023a.5.5,0,0,1,0-1h13a.5.5,0,0,1,0,1Zm3.835-4.327-4.947-2.721a.746.746,0,0,1-.357-.86l.645-2.206a.75.75,0,0,1,.892-.515l3.682.85,2.072-1.276-6.772-2.386a.746.746,0,0,1-.141-1.34l3.04-1.87a.769.769,0,0,1,.555-.1l9.293,2.012,2.552-1.57a11.382,11.382,0,0,1,6.535-1.681,1.659,1.659,0,0,1,1.558,1.265,1.633,1.633,0,0,1-.428,1.6,1.715,1.715,0,0,1-.318.25l-17.1,10.524a.748.748,0,0,1-.4.113A.76.76,0,0,1,543.335,1018.673Zm-3.686-3.741,4.034,2.22,16.721-10.293a.172.172,0,0,0,.086-.21.182.182,0,0,0-.176-.145,9.868,9.868,0,0,0-5.668,1.46l-2.813,1.732a.773.773,0,0,1-.555.094l-9.293-2.011-1.452.9,6.782,2.375a.754.754,0,0,1,.494.625.746.746,0,0,1-.354.716l-3.66,2.255a.786.786,0,0,1-.57.09l-3.293-.76Zm11.5.924a.5.5,0,1,1,.712,0,.487.487,0,0,1-.348.144A.542.542,0,0,1,551.144,1015.856Zm5-3a.5.5,0,1,1,.712,0,.487.487,0,0,1-.348.144A.542.542,0,0,1,556.144,1012.856Z" transform="translate(-538 -1002)" fill="#666"/></g></svg>