<svg xmlns:xlink="http://www.w3.org/1999/xlink" xmlns="http://www.w3.org/2000/svg" width="110.991" height="58.006" viewBox="0 0 110.991 58.006"><g transform="translate(-1.337 -27.865)"><path d="M4.5,51.925,19.146,64.07s22.646.126,22.559,0C25.65,58.462,18.231,47.877,17.391,46.836l-9.576-18.4H1.906" fill="#038341"/><path d="M9.415,33.844l5.138,6.474a4.879,4.879,0,1,1-5.138-6.474Z" fill="#fff"/><path d="M14.554,40.317l-.2-.246a4.526,4.526,0,0,1-.39.862,4.649,4.649,0,0,0-1.064-.584,5.277,5.277,0,0,0,.277-1.6h.134l-.128-.161h-.005V38.58L13,38.356c0,.076.007.153.008.23h-1.32a7.568,7.568,0,0,0-.13-1.29c.153-.028.3-.06.452-.1l.061-.015-.111-.139q-.214.052-.434.092a7.108,7.108,0,0,0-.291-1.006l-.4-.51.03.062a2.77,2.77,0,0,1-.807.142V34.643l-.163-.206v1.388a2.79,2.79,0,0,1-.81-.145,5.658,5.658,0,0,1,.8-1.253l-.108-.137a5.808,5.808,0,0,0-.855,1.33,2.673,2.673,0,0,1-.656-.385,4.415,4.415,0,0,1,1.4-.977l.06-.026L9.619,34.1l-.02.009a4.59,4.59,0,0,0-1.464,1.021,2.5,2.5,0,0,1-.4-.473A4.616,4.616,0,0,1,9.618,34.1l-.071-.089-.132-.162a4.843,4.843,0,1,0,5.138,6.473ZM6.91,38.587a5.069,5.069,0,0,1,.284-1.612,7.146,7.146,0,0,0,1.187.321,7.577,7.577,0,0,0-.13,1.291Zm1.341.161a7.716,7.716,0,0,0,.1,1.226,7.114,7.114,0,0,0-1.177.323,5.112,5.112,0,0,1-.268-1.549Zm.132,1.385a6.949,6.949,0,0,0,.437,1.445,2.833,2.833,0,0,0-.678.4,4.965,4.965,0,0,1-.91-1.533A6.929,6.929,0,0,1,8.383,40.133Zm.5,1.592a5.782,5.782,0,0,0,.945,1.456,4.327,4.327,0,0,1-1.58-1.08A2.681,2.681,0,0,1,8.886,41.725Zm-1.15.932a2.524,2.524,0,0,1,.387-.447,4.552,4.552,0,0,0,1.323.985A4.616,4.616,0,0,1,7.736,42.657ZM6.053,41.082a4.413,4.413,0,0,1,1.022-.572,5.132,5.132,0,0,0,.94,1.581,2.666,2.666,0,0,0-.42.486A4.633,4.633,0,0,1,6.053,41.082Zm-.705-2.334H6.741a5.288,5.288,0,0,0,.28,1.61,4.608,4.608,0,0,0-1.052.584A4.506,4.506,0,0,1,5.348,38.748Zm.637-2.412a4.654,4.654,0,0,0,1.051.578,5.238,5.238,0,0,0-.3,1.673H5.347A4.507,4.507,0,0,1,5.985,36.336Zm2.039-1.091a4.929,4.929,0,0,0-.932,1.518A4.449,4.449,0,0,1,6.07,36.2a4.63,4.63,0,0,1,1.519-1.463A2.659,2.659,0,0,0,8.024,35.244Zm.828.524a6.99,6.99,0,0,0-.439,1.37,6.974,6.974,0,0,1-1.163-.314,4.762,4.762,0,0,1,.9-1.47A2.84,2.84,0,0,0,8.852,35.768ZM9.89,37.276a8.722,8.722,0,0,1-1.307-.108,6.815,6.815,0,0,1,.43-1.339,2.947,2.947,0,0,0,.877.159Zm0,1.311H8.424a7.423,7.423,0,0,1,.127-1.261,8.868,8.868,0,0,0,1.339.112Zm0,1.242a8.859,8.859,0,0,0-1.365.116,7.544,7.544,0,0,1-.1-1.2H9.89Zm0,1.521a2.951,2.951,0,0,0-.909.166A6.757,6.757,0,0,1,8.553,40.1,8.725,8.725,0,0,1,9.89,39.99Zm0,1.639a5.649,5.649,0,0,1-.843-1.325,2.784,2.784,0,0,1,.843-.153Zm.577.209a4.556,4.556,0,0,0,1.33-.99,2.505,2.505,0,0,1,.391.45A4.611,4.611,0,0,1,10.467,43.2Zm-.348-.029a5.792,5.792,0,0,0,.931-1.437,2.671,2.671,0,0,1,.618.367A4.332,4.332,0,0,1,10.119,43.168Zm-.066-1.656a2.784,2.784,0,0,1,.837.157,5.654,5.654,0,0,1-.837,1.316Zm0-1.522a8.724,8.724,0,0,1,1.333.113,6.765,6.765,0,0,1-.43,1.418,2.949,2.949,0,0,0-.9-.17Zm1.3-2.823a8.652,8.652,0,0,1-1.3.108V35.988a2.933,2.933,0,0,0,.875-.156A6.818,6.818,0,0,1,11.355,37.167Zm.159,1.42H10.053v-1.15a8.8,8.8,0,0,0,1.335-.111A7.423,7.423,0,0,1,11.514,38.587Zm0,.161a7.539,7.539,0,0,1-.1,1.2,8.856,8.856,0,0,0-1.361-.116v-1.08Zm1.172,1.692a4.96,4.96,0,0,1-.91,1.538,2.832,2.832,0,0,0-.661-.394,6.94,6.94,0,0,0,.44-1.451A6.965,6.965,0,0,1,12.687,40.44Zm.054-.152a7.169,7.169,0,0,0-1.157-.314,7.729,7.729,0,0,0,.1-1.226h1.319A5.114,5.114,0,0,1,12.74,40.288Zm1.137.785a4.628,4.628,0,0,1-1.549,1.5,2.664,2.664,0,0,0-.424-.49,5.135,5.135,0,0,0,.94-1.586A4.461,4.461,0,0,1,13.877,41.073Z" fill="#ec671d"/><g fill="#038341" stroke-linecap="round" stroke-linejoin="round"><path d="M 10.00818157196045 41.66907119750977 L 9.901851654052734 41.66767120361328 L 9.560389518737793 39.63901138305664 L 8.578531265258789 40.07461166381836 L 8.441921234130859 40.13521957397461 L 8.508171081542969 40.00125122070313 L 8.96150016784668 39.08454895019531 L 7.550491333007813 38.67893218994141 L 7.36074161529541 38.62438201904297 L 7.551821708679199 38.57469177246094 L 8.961466789245605 38.20806121826172 L 8.514701843261719 37.27907943725586 L 8.450541496276855 37.14567947387695 L 8.585561752319336 37.20637130737305 L 9.554096221923828 37.64171600341797 L 9.915491104125977 35.57923126220703 L 10.0218620300293 35.57873916625977 L 10.40298175811768 37.64127731323242 L 11.34460163116455 37.20658874511719 L 11.48001194000244 37.14408111572266 L 11.41608142852783 37.27883148193359 L 10.9687614440918 38.22161483764648 L 12.46048164367676 38.61505889892578 L 12.45898151397705 38.71995162963867 L 10.99490928649902 39.06143188476563 L 11.40992164611816 40.00342178344727 L 11.46678161621094 40.13248062133789 L 11.33823108673096 40.07447052001953 L 10.40243434906006 39.65214538574219 L 10.00818157196045 41.66907119750977 Z" stroke="none"/><path d="M 9.968721389770508 35.58856201171875 L 9.595331192016602 37.71950149536133 L 8.563401222229004 37.25566101074219 L 9.038631439208984 38.24383163452148 L 7.565421104431152 38.62699127197266 L 9.038631439208984 39.05049133300781 L 8.556612014770508 40.02521133422852 L 9.602121353149414 39.56137084960938 L 9.955142021179199 41.65869903564453 L 10.36248111724854 39.57482147216797 L 11.36046123504639 40.02521133422852 L 10.91918182373047 39.02360153198242 L 12.44670104980469 38.66732025146484 L 10.89202117919922 38.25727081298828 L 11.3672513961792 37.25566101074219 L 10.36248111724854 37.71950149536133 L 9.968721389770508 35.58856201171875 M 9.968724250793457 35.48046875 C 10.0208215713501 35.48046875 10.06553173065186 35.51764297485352 10.07501125335693 35.56892013549805 L 10.44349193572998 37.56304931640625 L 11.3219518661499 37.15752029418945 C 11.33646392822266 37.15082168579102 11.35190773010254 37.14756774902344 11.36722183227539 37.14756774902344 C 11.39549160003662 37.14756774902344 11.42332553863525 37.15865325927734 11.44408130645752 37.17963027954102 C 11.47608184814453 37.21197128295898 11.48441123962402 37.26089096069336 11.4649019241333 37.3019905090332 L 11.045485496521 38.18596649169922 L 12.47427177429199 38.56280899047852 C 12.52228164672852 38.57546997070313 12.55549144744873 38.61922073364258 12.55478096008301 38.66886901855469 C 12.55406188964844 38.71852111816406 12.51961135864258 38.76129913330078 12.47125148773193 38.77257919311523 L 11.0706262588501 39.09926223754883 L 11.45937156677246 39.98163223266602 C 11.47742176055908 40.02260208129883 11.46835136413574 40.07046127319336 11.43655109405518 40.10198211669922 C 11.41587257385254 40.12247848510742 11.38836765289307 40.13330459594727 11.36043834686279 40.13330459594727 C 11.34541702270508 40.13330459594727 11.33027362823486 40.13017272949219 11.31600189208984 40.12372970581055 L 10.44238662719727 39.72946548461914 L 10.0612211227417 41.67943954467773 C 10.05129432678223 41.730224609375 10.00678157806396 41.76678848266602 9.955166816711426 41.76678848266602 C 9.954683303833008 41.76678848266602 9.954206466674805 41.76678848266602 9.95372200012207 41.76678085327148 C 9.901491165161133 41.76609039306641 9.857221603393555 41.7281494140625 9.848551750183105 41.67663955688477 L 9.518648147583008 39.71664810180664 L 8.600441932678223 40.1240119934082 C 8.586343765258789 40.13026428222656 8.571422576904297 40.13330078125 8.556638717651367 40.13330078125 C 8.527787208557129 40.13330078125 8.499435424804688 40.12174987792969 8.478601455688477 40.10002899169922 C 8.447091102600098 40.06718063354492 8.439541816711426 40.01810073852539 8.459721565246582 39.97729873657227 L 8.884364128112793 39.11860656738281 L 7.535561561584473 38.73086929321289 C 7.488751411437988 38.71741104125977 7.456721305847168 38.67430877685547 7.457341194152832 38.6256103515625 C 7.457961082458496 38.57691192626953 7.491081237792969 38.53464126586914 7.538211822509766 38.52238082885742 L 8.884284019470215 38.17228698730469 L 8.465991973876953 37.30250930786133 C 8.446311950683594 37.26158905029297 8.454301834106445 37.21274185180664 8.485991477966309 37.18022155761719 C 8.50678825378418 37.15888595581055 8.534875869750977 37.14756774902344 8.563432693481445 37.14756774902344 C 8.578391075134277 37.14756774902344 8.593477249145508 37.15067291259766 8.607711791992188 37.15707015991211 L 9.512852668762207 37.56391906738281 L 9.862251281738281 35.56990051269531 C 9.871281623840332 35.51837921142578 9.915911674499512 35.48072052001953 9.968221664428711 35.48046875 C 9.968387603759766 35.48046875 9.968558311462402 35.48046875 9.968724250793457 35.48046875 Z" stroke="none" fill="#fff"/></g><path d="M15.822,62.214s54.146-6.668,93.972.944c.564.44-3.248,1.007-3.248,1.007l-87.7-.189Z" fill="#084222" stroke="#f60" stroke-miterlimit="10" stroke-width="0.379"/><rect width="2.056" height="3.393" rx="1.023" transform="translate(79.371 55.069)"/><rect width="2.056" height="3.393" rx="1.023" transform="translate(82.321 55.069)"/><rect width="2.056" height="3.393" rx="1.023" transform="translate(85.27 55.069)"/><rect width="2.056" height="3.393" rx="1.023" transform="translate(88.22 55.069)"/><rect width="2.056" height="3.393" rx="1.023" transform="translate(67.572 55.069)"/><rect width="2.056" height="3.393" rx="1.023" transform="translate(70.522 55.069)"/><rect width="2.056" height="3.393" rx="1.023" transform="translate(73.472 55.069)"/><rect width="2.056" height="3.393" rx="1.023" transform="translate(76.421 55.069)"/><g transform="translate(64.965 50.806)"><path d="M86.406,50.812h3.871v.82H87.791v.323h2.485v.753H87.818v.323h2.458v.914H86.406Z" transform="translate(-86.406 -50.806)" fill="#038341"/><path d="M81.425,50.812h1.487l.794,1.9.835-1.9H86l-1.446,3.073h-1.7Z" transform="translate(-77.147 -50.806)" fill="#038341"/><path d="M82.016,53.884H80.549l-.224-.444H78.807l-.224.444H77.1l1.6-3.073h1.732Zm-2.068-1.2-.387-.777-.387.777Z" transform="translate(-68.836 -50.806)" fill="#038341"/><path d="M76.526,53.884H75.059l-.224-.444H73.317l-.224.444H71.606l1.6-3.073h1.731Zm-2.068-1.2-.387-.777-.387.777Z" transform="translate(-57.856 -50.806)" fill="#038341"/><rect width="1.436" height="3.073" transform="translate(19.129 0.006)" fill="#038341"/><path d="M69,52.815v1.069H67.563s.01-.9,0-.918a.157.157,0,0,0-.112-.151H66.422v1.069H64.965V50.808h3.1a1.055,1.055,0,0,1,.637.135.717.717,0,0,1,.059.045.53.53,0,0,1,.209.352q0,.158,0,.315,0,.2,0,.4a1.287,1.287,0,0,1,0,.2c-.031.2-.3.242-.3.242A.5.5,0,0,1,69,52.815ZM67.639,51.8a.246.246,0,0,0-.247-.245H66.373v.489h1.019A.246.246,0,0,0,67.639,51.8Z" transform="translate(-43.687 -50.806)" fill="#038341"/></g><rect width="2.056" height="3.393" rx="1.023" transform="translate(30.522 55.069)"/><rect width="2.056" height="3.393" rx="1.023" transform="translate(33.471 55.069)"/><rect width="2.056" height="3.393" rx="1.023" transform="translate(36.421 55.069)"/><rect width="2.056" height="3.393" rx="1.023" transform="translate(39.371 55.069)"/><rect width="2.056" height="3.393" rx="1.023" transform="translate(18.723 55.069)"/><rect width="2.056" height="3.393" rx="1.023" transform="translate(21.673 55.069)"/><rect width="2.056" height="3.393" rx="1.023" transform="translate(24.622 55.069)"/><rect width="2.056" height="3.393" rx="1.023" transform="translate(27.572 55.069)"/><path d="M4.384,52.237,18.84,64.165h87.893a5.911,5.911,0,0,0,4.821-3.725c1.19-4.19-2.977-6.225-6.236-7.408-.317-.115-1.015-.207-1.254-.465-1.238-2.155-4.277-2.865-6.487-3.67a29.639,29.639,0,0,0-5.142-1.45,26.3,26.3,0,0,0-4.488-.212l-70.222-.118L7.433,28.434H1.906Z" fill="none" stroke="#000" stroke-linecap="round" stroke-linejoin="round" stroke-width="1.138"/><path d="M109.211,56.572H96.6a.9.9,0,0,1-.858-.944v-2.37a.9.9,0,0,1,.858-.944h7.807a.9.9,0,0,1,.858.944l4.8,2.37A.9.9,0,0,1,109.211,56.572Z"/><path d="M46.632,56.572l-24.7,28.045H35.071l29.6-27.851Z" fill="#fff"/><path d="M45.933,57.682,21.351,85.3H35l28.8-27.431" fill="none" stroke="#000" stroke-linecap="round" stroke-linejoin="round" stroke-width="1.138"/><path d="M56.567,65.27c1.31,0,2.382,1.628,2.382,2.925h0c0,1.3-1.072,2.925-2.382,2.925H50.372" fill="none" stroke="#000" stroke-linecap="round" stroke-linejoin="round" stroke-width="1.138"/><line x1="2.593" y1="23.491" transform="translate(1.906 28.434)" fill="#038341"/></g></svg>