<svg xmlns="http://www.w3.org/2000/svg" xmlns:xlink="http://www.w3.org/1999/xlink" width="24" height="24" viewBox="0 0 24 24"><defs><clipPath id="b"><rect width="24" height="24"/></clipPath></defs><g id="a" clip-path="url(#b)"><path d="M1001.5,1024a.5.5,0,1,1,0-1h13a.5.5,0,1,1,0,1Zm.515-4.385a.509.509,0,0,1,.373-.6.5.5,0,0,1,.6.372.508.508,0,0,1-.373.6.492.492,0,0,1-.114.014A.51.51,0,0,1,1002.015,1019.615Zm5-.005a.5.5,0,1,1,.6.373.488.488,0,0,1-.113.013A.512.512,0,0,1,1007.015,1019.61Zm-12.324-2-2.6-4.959a.792.792,0,0,1,.148-.931l1.633-1.559a.681.681,0,0,1,.978.028l2.53,2.678,2.31,0-4.238-5.636a.8.8,0,0,1-.081-.8.715.715,0,0,1,.645-.43l3.39,0a.7.7,0,0,1,.494.211l6.455,6.645,2.845,0a10.259,10.259,0,0,1,6.1,2.007,1.718,1.718,0,0,1,.613,1.914,1.621,1.621,0,0,1-1.154,1.152,1.562,1.562,0,0,1-.382.048l-19.067.026h-.007A.7.7,0,0,1,994.691,1017.615Zm-1.072-5.171,2.12,4.045,18.646-.027a.169.169,0,0,0,.176-.136.19.19,0,0,0-.068-.219,8.909,8.909,0,0,0-5.3-1.738l-3.136,0a.7.7,0,0,1-.494-.211l-6.455-6.646-1.62,0,4.252,5.633a.8.8,0,0,1,.081.8.713.713,0,0,1-.645.429l-4.084.008a.71.71,0,0,1-.5-.223l-2.263-2.4Z" transform="translate(-992 -1003)" fill="#666"/></g></svg>