<svg xmlns="http://www.w3.org/2000/svg" xmlns:xlink="http://www.w3.org/1999/xlink" width="24" height="24" viewBox="0 0 24 24"><defs><clipPath id="b"><rect width="24" height="24"/></clipPath></defs><g id="a" clip-path="url(#b)"><path d="M12,18a6,6,0,1,1,6,6A6.007,6.007,0,0,1,12,18Zm2,0a4,4,0,1,0,4-4A4,4,0,0,0,14,18Zm-2.932,4H3a3,3,0,0,1-3-3V5A3,3,0,0,1,3,2H4V1A1,1,0,1,1,6,1V2h4V1a1,1,0,0,1,2,0V2h4V1a1,1,0,1,1,2,0V2h1a3,3,0,0,1,3,3v6.071a7.95,7.95,0,0,0-2.011-.822V4.99a1,1,0,0,0-1-1H18V5a1,1,0,1,1-2,0V3.99H12V5a1,1,0,0,1-2,0V3.99H6V5A1,1,0,0,1,4,5V3.99H2.99a1,1,0,0,0-1,1v14a1,1,0,0,0,1,1h7.259A7.942,7.942,0,0,0,11.069,22v0ZM17,19V15h2v2h1v2Zm-7-1H8V16h2v2h0ZM6,18H4V16H6v2H6Zm4-4H8V12h2v2h0ZM6,14H4V12H6v2H6Zm12-4H16V8h2v2h0Zm-4,0H12V8h2v2h0Zm-4,0H8V8h2v2h0ZM6,10H4V8H6v2H6Z"/></g></svg>